<?xml version="1.0" encoding="UTF-8"?>
<svg version="1.1" xmlns="http://www.w3.org/2000/svg" width="586" height="426">
<path d="M0 0 C2.0280677 -0.00392566 4.05613094 -0.0118077 6.08416986 -0.0233025 C11.65345166 -0.04342609 17.2211756 -0.00743192 22.79025888 0.03770006 C28.79699033 0.07655777 34.80363356 0.0634145 40.81045532 0.05657959 C51.21632803 0.05185985 61.62178271 0.07978856 72.0275116 0.13072014 C82.93965563 0.18399337 93.85159711 0.21861755 104.76387024 0.22839546 C105.44263024 0.22901412 106.12139025 0.22963278 106.82071874 0.23027018 C110.26786889 0.23331522 113.71501923 0.23602766 117.16216975 0.23861206 C141.5715078 0.25751036 165.9805814 0.31813118 190.38977051 0.40333557 C214.10134475 0.48600923 237.81284661 0.54975489 261.52453613 0.58790588 C262.25557132 0.58908962 262.98660651 0.59027335 263.73979428 0.59149296 C271.08122275 0.60335975 278.42265178 0.61484206 285.76408129 0.62604269 C300.71910819 0.64886795 315.67413037 0.67425922 330.62915039 0.70120239 C331.31674164 0.702438 332.0043329 0.70367361 332.71276025 0.70494666 C378.62050839 0.78773755 424.52810248 0.93052992 470.43566895 1.08229065 C470.43566895 5.6316326 470.17854617 5.79074875 467.18566895 8.83229065 C463.18621203 13.12508877 459.63055134 17.63799127 456.12316895 22.33229065 C455.60786621 23.01774963 455.09256348 23.70320862 454.56164551 24.40943909 C452.48366902 27.20142193 450.52337211 29.93194237 448.7677002 32.94166565 C447.43566895 35.08229065 447.43566895 35.08229065 444.43566895 37.08229065 C441.9623191 37.26865906 439.60351001 37.33787345 437.1307621 37.31441975 C436.00082734 37.31563431 436.00082734 37.31563431 434.84806561 37.3168734 C432.30348107 37.31715626 429.75917389 37.30306009 427.21463013 37.28915405 C425.38006934 37.28644774 423.54550705 37.28463464 421.71094453 37.28364199 C416.65362712 37.27839209 411.59641635 37.26069789 406.53913689 37.24112666 C401.09120374 37.22226084 395.64325474 37.21499189 390.19529724 37.20654297 C380.74988442 37.19051237 371.30450748 37.16772079 361.85911942 37.14092445 C346.93692679 37.0990779 332.01473503 37.07669058 317.09249878 37.05731201 C311.9906481 37.05043167 306.88879764 37.04339964 301.78694725 37.03630352 C300.51187909 37.03453187 299.23681094 37.03276021 297.92310435 37.03093487 C283.40189558 37.01043028 268.88069543 36.98530034 254.35949707 36.95851135 C253.36394325 36.956682 253.36394325 36.956682 252.34827724 36.95481569 C236.86191358 36.92629701 221.37556265 36.89436151 205.88922119 36.85554504 C204.89007062 36.85304236 204.89007062 36.85304236 203.87073518 36.85048911 C200.51196633 36.84206282 197.15319758 36.83359617 193.79442887 36.82511463 C193.13061803 36.82343845 192.46680718 36.82176227 191.78288086 36.8200353 C190.44303915 36.81665044 189.10319746 36.81326225 187.76335578 36.8098707 C165.01017405 36.75237949 142.25701147 36.71381328 119.50376546 36.69318885 C105.87231619 36.6800916 92.24108604 36.65095285 78.60971962 36.6014153 C69.27283061 36.56877401 59.93602484 36.55412936 50.59907915 36.55381016 C45.20704003 36.55304127 39.81533823 36.5439655 34.4233799 36.51317978 C29.49108499 36.4851757 24.55932406 36.48003114 19.6269726 36.49337073 C17.83894565 36.49409849 16.05089145 36.48627896 14.26294561 36.4692323 C11.83871841 36.44733377 9.41648258 36.45606399 6.99225807 36.47263813 C6.29231696 36.45893137 5.59237585 36.4452246 4.8712244 36.43110248 C1.02895268 36.49465661 -0.45475409 36.99005173 -3.43780196 39.50110072 C-4.13955656 40.3528934 -4.84131116 41.20468607 -5.56433105 42.08229065 C-6.0860791 42.71215881 -6.60782715 43.34202698 -7.14538574 43.99098206 C-22.35643595 64.61397548 -34.39652316 86.17762832 -43.56433105 110.08229065 C-43.8275415 110.7570343 -44.09075195 111.43177795 -44.36193848 112.12696838 C-56.06371673 142.5546743 -61.19923748 174.2617896 -61.00183105 206.76979065 C-60.99945435 207.80901672 -60.99707764 208.8482428 -60.99462891 209.91896057 C-60.93511918 226.61367805 -60.00632735 242.70104994 -56.56433105 259.08229065 C-56.40416504 259.86217346 -56.24399902 260.64205627 -56.07897949 261.4455719 C-55.10213055 266.04982808 -53.89261491 270.56723243 -52.56433105 275.08229065 C-52.34519043 275.8491217 -52.1260498 276.61595276 -51.90026855 277.40602112 C-46.99462001 294.55220619 -41.43011162 311.06207703 -33.56433105 327.08229065 C-32.87597168 328.5518219 -32.87597168 328.5518219 -32.17370605 330.05104065 C-26.15103865 342.65018396 -18.48510729 354.43733249 -10.62683105 365.95729065 C-10.17864014 366.61696838 -9.73044922 367.27664612 -9.26867676 367.95631409 C-8.84159424 368.57280823 -8.41451172 369.18930237 -7.9744873 369.82447815 C-7.60460693 370.35927795 -7.23472656 370.89407776 -6.8536377 371.44508362 C-6.4281665 371.98536194 -6.00269531 372.52564026 -5.56433105 373.08229065 C-4.76526287 374.10844126 -4.76526287 374.10844126 -3.9500519 375.15532219 C-0.74570755 377.74350031 1.95444823 377.62311656 5.89650917 377.55099297 C6.65451999 377.55310237 7.41253082 377.55521177 8.19351166 377.55738509 C10.74848779 377.5596226 13.30237582 377.5331697 15.85720825 377.50706482 C17.70144101 377.50291668 19.54567854 377.50056556 21.38991582 377.49986279 C25.40744878 377.49439507 29.42465423 377.47606567 33.4420929 377.44807243 C39.9781742 377.40253028 46.51417194 377.3842586 53.05038452 377.36920166 C62.54055963 377.34474246 72.03061033 377.30724772 81.52070999 377.26249313 C96.51995947 377.19311468 111.51913761 377.16728564 126.51852417 377.14897156 C131.64856171 377.14220052 136.77859892 377.13519761 141.90863609 377.12816048 C143.1907608 377.12641975 144.4728855 377.12467902 145.79386247 377.12288555 C160.3940423 377.1025956 174.99420308 377.07464355 189.59436035 377.04225159 C190.26161074 377.04078426 190.92886113 377.03931693 191.61633123 377.03780513 C213.24866103 376.98996919 234.88071562 376.90682373 256.51287313 376.80954321 C279.38548866 376.7069633 302.25784082 376.65713598 325.13070142 376.65870011 C338.82799471 376.65767946 352.52374769 376.61286472 366.22067575 376.51196952 C375.60824275 376.44653881 384.99501729 376.43197687 394.38277443 376.45749395 C399.80058805 376.47062061 405.21584291 376.46084443 410.63326263 376.3898716 C415.59539754 376.32532356 420.55320376 376.32552246 425.51545469 376.37678744 C427.30830327 376.38392315 429.10143747 376.36742885 430.89379068 376.32468639 C443.93046936 376.03230787 443.93046936 376.03230787 448.09023377 379.43620649 C451.08692983 382.73319523 453.25908372 386.39283003 455.37707083 390.29166426 C457.12665071 393.25109131 459.31881305 395.73001005 461.56066895 398.33229065 C465.43566895 402.86429757 465.43566895 402.86429757 465.43566895 405.08229065 C466.42566895 405.41229065 467.41566895 405.74229065 468.43566895 406.08229065 C470.18566895 407.95729065 470.18566895 407.95729065 471.43566895 410.08229065 C471.10566895 411.07229065 470.77566895 412.06229065 470.43566895 413.08229065 C424.07717132 413.13363314 377.71867135 413.18139663 331.3601532 413.20932007 C330.6743013 413.20973424 329.9884494 413.21014841 329.28181411 413.21057513 C314.37728642 413.21955334 299.47275841 413.22786396 284.56822996 413.23548664 C277.25931307 413.23922873 269.95039626 413.24311838 262.64147949 413.24708557 C261.9141449 413.24747785 261.1868103 413.24787013 260.43743526 413.24827429 C236.85199144 413.26106394 213.26656915 413.28360205 189.68113837 413.31118231 C165.44901469 413.33946741 141.21690292 413.35794404 116.98476301 413.36403562 C113.5640728 413.36490012 110.14338264 413.36587703 106.72269249 413.36692238 C105.71280674 413.36722578 105.71280674 413.36722578 104.68251925 413.36753531 C93.83419647 413.37108386 82.98591049 413.38500716 72.13760273 413.40278675 C61.23788942 413.42043004 50.33821442 413.42695592 39.43848751 413.42279478 C33.53012322 413.42086696 27.62186716 413.42389112 21.71352196 413.43990707 C16.30935086 413.45444992 10.9053613 413.45527966 5.50118204 413.44498733 C3.54147926 413.44371429 1.58176538 413.44756724 -0.3779154 413.4569402 C-3.03331247 413.46890679 -5.68804643 413.46253513 -8.34343243 413.45143414 C-9.11161359 413.45931518 -9.87979475 413.46719622 -10.67125413 413.47531608 C-16.65406286 413.41845047 -19.7213236 411.86195415 -23.9510498 407.77760315 C-24.71030762 406.92940002 -25.46956543 406.0811969 -26.25183105 405.20729065 C-27.01882324 404.36424377 -27.78581543 403.5211969 -28.5760498 402.65260315 C-30.49723065 400.16903341 -31.57225541 398.04260193 -32.56433105 395.08229065 C-33.22433105 395.08229065 -33.88433105 395.08229065 -34.56433105 395.08229065 C-36.32482706 392.78386531 -37.95741875 390.48562697 -39.56433105 388.08229065 C-40.0563501 387.35243958 -40.54836914 386.6225885 -41.05529785 385.87062073 C-42.56785735 383.61404417 -44.06703881 381.34901778 -45.56433105 379.08229065 C-45.98279297 378.45757874 -46.40125488 377.83286682 -46.83239746 377.18922424 C-59.80470325 357.73875672 -71.5642132 335.65802153 -79.06433105 313.51979065 C-79.35493408 312.66957336 -79.64553711 311.81935608 -79.94494629 310.94337463 C-80.83027947 308.32690535 -81.69966622 305.70565489 -82.56433105 303.08229065 C-82.95902588 301.90134827 -82.95902588 301.90134827 -83.36169434 300.69654846 C-101.11655045 247.0148819 -101.92214062 189.92937618 -89.56433105 135.08229065 C-89.36581543 134.1892926 -89.1672998 133.29629456 -88.96276855 132.37623596 C-86.08185491 119.59938394 -82.15401874 107.34241529 -77.56433105 95.08229065 C-77.18341309 94.04781799 -77.18341309 94.04781799 -76.7947998 92.9924469 C-73.6535436 84.50937533 -69.85807321 76.54753311 -65.4979248 68.63697815 C-63.76107105 65.4819905 -62.18229786 62.26860498 -60.62683105 59.01979065 C-57.15401876 52.01785019 -52.91612407 45.55686485 -48.56433105 39.08229065 C-47.85276855 38.02139221 -47.14120605 36.96049377 -46.40808105 35.8674469 C-42.23861043 29.75675535 -37.91349383 23.76970275 -33.50183105 17.83229065 C-33.03156494 17.19501038 -32.56129883 16.5577301 -32.07678223 15.90113831 C-31.14271847 14.6556131 -30.18614888 13.42659199 -29.2059865 12.21700948 C-27.51937896 10.11409616 -27.51937896 10.11409616 -26.20039701 7.76859432 C-19.74154663 -1.73538143 -10.35145203 -0.14831826 0 0 Z " fill="#1D1D1C" transform="translate(101.5643310546875,7.9177093505859375)"/>
<path d="M0 0 C0.99875782 -0.00173077 0.99875782 -0.00173077 2.01769257 -0.0034965 C4.27068177 -0.00616396 6.5236009 -0.00163994 8.77658653 0.00279331 C10.39935936 0.00235764 12.02213211 0.0014828 13.64490449 0.00020415 C18.12121322 -0.00204154 22.59749821 0.00198148 27.0738039 0.00698221 C31.89453635 0.01128547 36.71526738 0.00984037 41.53600121 0.00907993 C49.89391588 0.00855462 58.25182277 0.0117022 66.60973549 0.01731777 C78.69399626 0.02543176 90.77825325 0.02804789 102.86251645 0.02930576 C122.46663692 0.03149644 142.07075323 0.03815696 161.67487144 0.04760838 C180.7227228 0.05678208 199.77057302 0.06386312 218.81842613 0.06811619 C220.57847185 0.06851027 220.57847185 0.06851027 222.37407406 0.06891232 C228.26027278 0.07021732 234.14647152 0.07148104 240.03267026 0.07272422 C288.89387561 0.08309733 337.75507645 0.10071608 386.61627769 0.12304783 C387.74176598 3.85254002 387.74176598 3.85254002 386.61237144 6.28711033 C386.09803551 7.0992197 385.58369957 7.91132908 385.05377769 8.74804783 C381.63413032 14.62282664 379.61073116 20.64240054 377.62189293 27.10400486 C375.80341615 32.93590937 375.80341615 32.93590937 373.61627769 35.12304783 C371.04836875 35.36635017 371.04836875 35.36635017 367.72062969 35.35682774 C366.45649189 35.35812624 365.19235409 35.35942474 363.88990909 35.3607626 C362.47393467 35.35207515 361.05796125 35.34322487 359.64198875 35.33422947 C358.14794997 35.33207331 356.65390965 35.33082166 355.15986937 35.33040142 C351.90146994 35.32754006 348.64317029 35.31828185 345.38479996 35.30425167 C340.08397311 35.28146763 334.78317315 35.27232587 329.48230553 35.26496983 C322.78471113 35.25465437 316.08714147 35.24060731 309.38956424 35.2222504 C296.22771204 35.18624129 283.06594046 35.17477555 269.9040432 35.17236423 C267.83352575 35.17185952 265.76300831 35.17134066 263.69249088 35.17080784 C260.55423578 35.17002041 257.41598069 35.16924882 254.27772558 35.16853666 C242.43834463 35.16575736 230.59896653 35.16029869 218.75958824 35.15185642 C217.67696226 35.15109293 216.59433627 35.15032944 215.47890344 35.14954281 C197.93675626 35.13622951 180.39478313 35.09346049 162.85271315 35.04159629 C144.85259057 34.98924797 126.85270786 34.97497702 108.85251921 34.9944706 C97.74443945 35.00516337 86.63727091 34.98507173 75.52934095 34.92568558 C67.9167703 34.8876908 60.30474177 34.88608344 52.69212673 34.91323024 C48.2978551 34.92777391 43.90516975 34.92593794 39.51107407 34.88053417 C35.48765028 34.83929696 31.46700423 34.84413191 27.44360682 34.88556564 C25.98861628 34.89240818 24.53342707 34.88233555 23.07870386 34.85361874 C14.99342706 34.55251134 14.99342706 34.55251134 8.23283327 38.32437611 C6.43677696 40.8541188 4.99216876 43.34700567 3.61627769 46.12304783 C2.96659019 47.12593845 2.31690269 48.12882908 1.64752769 49.16211033 C-14.59486978 76.59187341 -21.01372307 106.43400917 -20.38372231 138.12304783 C-20.37598793 139.69699314 -20.37598793 139.69699314 -20.36809731 141.30273533 C-19.48418598 166.62048123 -10.54650772 192.36543602 2.40545213 214.00378186 C3.61627769 216.12304783 3.61627769 216.12304783 4.63960803 218.4327392 C6.04413014 221.17646515 7.32268326 223.04734116 9.61627769 225.12304783 C14.4186922 226.48247136 19.20609253 226.32502528 24.15665245 226.24330235 C25.6632835 226.25136002 27.16989774 226.2633669 28.67646945 226.27897924 C32.81376048 226.31043208 36.94911599 226.28586976 41.08631968 226.25218141 C45.54851192 226.22565106 50.01044336 226.25103099 54.47263145 226.27011204 C62.20261571 226.29605928 69.93200927 226.28910469 77.66197395 226.25981426 C88.83808755 226.21751321 100.01373548 226.22481473 111.18989213 226.24422961 C129.32218242 226.27438109 147.45421994 226.2644075 165.58649254 226.229249 C183.20046417 226.19518131 200.81428537 226.17998083 218.42828941 226.1901865 C219.51397946 226.19080898 220.59966951 226.19143147 221.71825926 226.19207282 C227.16483762 226.19531213 232.61141565 226.19892271 238.05799365 226.2027179 C283.24418165 226.23372335 328.43015258 226.19963031 373.61627769 226.12304783 C374.25245866 227.3734635 374.88606483 228.62518931 375.51862144 229.87744236 C375.871744 230.57435184 376.22486656 231.27126133 376.5886898 231.98928928 C378.15688791 235.24561037 379.3908272 238.60115578 380.61627769 241.99804783 C381.12843827 243.39159346 381.64145969 244.78482301 382.15534019 246.17773533 C382.4018734 246.84772556 382.6484066 247.5177158 382.90241051 248.20800877 C384.39456583 252.21090423 386.00036836 256.16882264 387.61627769 260.12304783 C385.99723895 261.74208657 384.17455858 261.34410098 381.93325615 261.43490505 C380.92612525 261.47621268 379.91899434 261.51752032 378.88134432 261.56007969 C377.21407738 261.61818328 377.21407738 261.61818328 375.51312828 261.67746067 C374.34896307 261.71958805 373.18479785 261.76171543 371.9853549 261.8051194 C358.47424948 262.25179851 344.96368917 262.2660338 331.44685316 262.2537725 C327.66444896 262.25146484 323.88204892 262.25502445 320.09964561 262.25775242 C312.72166953 262.26215599 305.34370373 262.26125712 297.96572727 262.25833978 C291.94465644 262.2560601 285.92358845 262.2557842 279.90251732 262.25686359 C279.03791133 262.25701683 278.17330534 262.25717006 277.28249916 262.25732794 C275.52449961 262.25764775 273.76650006 262.25797197 272.00850052 262.25830053 C255.58553472 262.26114057 239.16257453 262.2578937 222.73960966 262.25250016 C208.76783211 262.24805262 194.7960629 262.24879394 180.82428551 262.25341892 C164.48810677 262.25882429 148.15193297 262.26084615 131.81575346 262.25780666 C130.05770779 262.25748822 128.29966211 262.25717385 126.54161644 262.25686359 C125.67733466 262.25670932 124.81305288 262.25655504 123.92258075 262.25639609 C117.94851496 262.25554717 111.97445248 262.25700136 106.00038719 262.25934315 C102.69970261 262.26041669 99.39901804 262.26127992 96.09833336 262.26199436 C95.29412691 262.26218978 94.48992046 262.26238521 93.66134411 262.26258655 C85.10408735 262.26391354 76.54702981 262.25552816 67.989851 262.21712017 C67.25608292 262.21383871 66.52231485 262.21055725 65.76631138 262.20717635 C62.86690271 262.19390557 59.96749737 262.18030963 57.06809849 262.16503815 C48.37067117 262.11981293 39.6782063 262.13773645 30.98094225 262.24066126 C26.2824271 262.28854774 21.5845047 262.29435546 16.88577747 262.29008555 C14.76437509 262.29804784 12.64293934 262.32489982 10.52206326 262.37281728 C-5.91824222 262.73491748 -5.91824222 262.73491748 -10.79993629 258.7241869 C-13.41017155 256.12520632 -15.4267843 253.24358293 -17.38372231 250.12304783 C-18.10158787 249.13618897 -18.10158787 249.13618897 -18.83395576 248.12939358 C-19.96800967 246.55416962 -20.99349078 244.90234941 -22.00872231 243.24804783 C-22.37078773 242.66273289 -22.73285316 242.07741795 -23.10589027 241.47436619 C-23.84622539 240.27555188 -24.58216641 239.07401141 -25.31340981 237.86962986 C-26.34403289 236.18781473 -27.41013317 234.52789811 -28.47747231 232.86914158 C-33.55101425 224.91734026 -37.65552456 216.76478506 -41.38372231 208.12304783 C-41.65458656 207.49608006 -41.92545082 206.86911228 -42.20452309 206.22314548 C-59.4756697 165.76378874 -61.87160949 117.34399974 -49.38372231 75.12304783 C-49.18440102 74.43356052 -48.98507973 73.74407322 -48.7797184 73.03369236 C-43.8027453 56.11045127 -36.50964157 39.60780652 -26.38372231 25.12304783 C-25.68633949 24.08148533 -24.98895668 23.03992283 -24.27044106 21.96679783 C-9.48430363 -0.00301856 -9.48430363 -0.00301856 0 0 Z " fill="#222220" transform="translate(136.38372230529785,83.87695217132568)"/>
<path d="M0 0 C1.13248427 -0.00858089 2.26496853 -0.01716179 3.4317705 -0.02600271 C5.29843472 -0.00954884 5.29843472 -0.00954884 7.20280933 0.00723743 C8.53786361 0.00477743 9.87291562 0.00056302 11.20795947 -0.00525731 C14.87986541 -0.01615797 18.55131859 -0.00205973 22.22318041 0.01606309 C26.181592 0.0312589 30.13996526 0.02340806 34.09839344 0.01837635 C41.85337247 0.01214477 49.60817345 0.02715364 57.36311825 0.04910197 C66.38647357 0.07376106 75.40979603 0.07670539 84.43318007 0.07850573 C100.52666092 0.08238392 116.62006137 0.10486502 132.71350574 0.13829517 C148.34567062 0.17074082 163.97779304 0.19197717 179.60999012 0.19981861 C181.05476503 0.20054685 181.05476503 0.20054685 182.52872732 0.2012898 C186.39977216 0.20321832 190.27081702 0.20513045 194.1418619 0.2070059 C209.01916498 0.21453007 223.89646104 0.2301595 238.77375555 0.2475025 C243.27364563 0.2527445 247.77353557 0.25767734 252.27342677 0.26186442 C261.73682574 0.27077229 271.2002043 0.28251565 280.66358527 0.30343046 C284.57857889 0.3120499 288.49355827 0.31912369 292.40856075 0.32194614 C296.64257278 0.32508819 300.87652749 0.33599367 305.11052418 0.34781361 C306.36165916 0.34762924 307.61279414 0.34744488 308.9018423 0.34725493 C310.02650332 0.35171278 311.15116434 0.35617062 312.30990601 0.36076355 C313.77787999 0.36344641 313.77787999 0.36344641 315.27551001 0.36618346 C317.46619129 0.49498463 317.46619129 0.49498463 318.46619129 1.49498463 C318.3999476 3.11174471 318.2608072 4.72562614 318.09119129 6.33482838 C317.99064442 7.33111256 317.89009754 8.32739674 317.78650379 9.35387135 C317.68080067 10.39043873 317.57509754 11.42700611 317.46619129 12.49498463 C317.29586023 14.43346822 317.12912593 16.37227159 316.96619129 18.31139088 C316.79952463 20.22675546 316.63285796 22.14212004 316.46619129 24.05748463 C316.38369129 25.04039478 316.30119129 26.02330494 316.21619129 27.03600025 C316.13369129 27.97250416 316.05119129 28.90900806 315.96619129 29.87389088 C315.89400379 30.71508472 315.82181629 31.55627857 315.74744129 32.42296314 C315.46619129 34.49498463 315.46619129 34.49498463 314.46619129 36.49498463 C215.13619129 36.82498463 115.80619129 37.15498463 13.46619129 37.49498463 C10.74198053 44.16179819 10.74198053 44.16179819 10.10291004 50.55357838 C10.10355457 51.4346526 10.1041991 52.31572681 10.10486317 53.22350025 C10.12097645 54.1174651 10.13708973 55.01142994 10.15369129 55.93248463 C10.15046864 56.82258228 10.14724598 57.71267994 10.14392567 58.62975025 C10.17887773 62.97969366 10.51803817 66.924847 11.48335743 71.17139149 C11.75807739 72.38615713 11.75807739 72.38615713 12.03834724 73.62546349 C12.17953578 74.24240546 12.32072432 74.85934744 12.46619129 75.49498463 C13.4166689 75.49327589 13.4166689 75.49327589 14.38634807 75.49153262 C51.91344457 75.4244478 89.44053223 75.37294997 126.96767639 75.34178864 C131.47019253 75.33803637 135.97270854 75.33415341 140.47522449 75.3301897 C141.371622 75.32940277 142.2680195 75.32861584 143.19158056 75.32780506 C157.71985766 75.31473907 172.24809928 75.29107867 186.7763553 75.26352624 C201.67558107 75.23550522 216.57478822 75.21881538 231.47403926 75.21271914 C240.67309461 75.20859583 249.87204966 75.19555694 259.07107415 75.17123523 C265.3729355 75.15541877 271.67474475 75.15057495 277.97662453 75.15448049 C281.61646899 75.15640845 285.25613778 75.15338305 288.89595127 75.1373682 C292.83612267 75.12015774 296.77606258 75.12599398 300.71626759 75.13422108 C301.87481355 75.12548255 303.03335951 75.11674403 304.22701293 75.1077407 C305.80350066 75.11670042 305.80350066 75.11670042 307.41183662 75.12584114 C308.32202626 75.12470198 309.23221589 75.12356282 310.16998702 75.12238914 C312.92864051 75.57002433 313.80689337 76.28382632 315.46619129 78.49498463 C315.97449207 80.78819752 315.97449207 80.78819752 316.16150379 83.46764088 C316.23755848 84.45055103 316.31361317 85.43346119 316.39197254 86.4461565 C316.49058582 87.98626392 316.49058582 87.98626392 316.59119129 89.55748463 C316.73905766 91.56924544 316.88749074 93.58096468 317.03650379 95.59264088 C317.10514637 96.57248951 317.17378895 97.55233814 317.2445116 98.56187916 C317.57097013 102.8813425 318.00816297 107.18773385 318.46619129 111.49498463 C315.91035866 112.77290094 314.11499532 112.6227166 311.25212097 112.62641239 C309.58396828 112.63217411 309.58396828 112.63217411 307.88211554 112.63805223 C306.65013932 112.63718574 305.41816309 112.63631926 304.14885426 112.63542652 C302.19760292 112.6398832 302.19760292 112.6398832 300.20693237 112.64442992 C296.58399815 112.65251876 292.96108373 112.65429054 289.33814156 112.65502739 C285.43551704 112.65687468 281.53290287 112.66442038 277.63028431 112.67116261 C269.09108458 112.68475988 260.55188953 112.69077283 252.01268077 112.69517326 C246.68347591 112.69793336 241.35427287 112.70217029 236.02506924 112.70667744 C221.27794191 112.71887198 206.53081604 112.72917089 191.78368378 112.73255253 C190.36717387 112.73288188 190.36717387 112.73288188 188.9220476 112.73321788 C187.50209524 112.7335453 187.50209524 112.7335453 186.05345696 112.73387933 C184.13512687 112.7343228 182.21679677 112.73476936 180.29846668 112.735219 C179.34690313 112.73544043 178.39533957 112.73566186 177.41494075 112.73589 C161.99252504 112.7398389 146.57015656 112.75729489 131.1477591 112.78057852 C115.32410611 112.80427565 99.50047683 112.81675363 83.67680579 112.81792045 C74.78824786 112.81883814 65.89975146 112.82461405 57.01121044 112.84274006 C49.4429538 112.85811896 41.87477768 112.86327463 34.30650838 112.85500196 C30.44363108 112.85108756 26.58091606 112.8520633 22.71805859 112.8660593 C18.53341412 112.88108282 14.34913742 112.87295515 10.16447926 112.8624773 C8.9391952 112.87053371 7.71391114 112.87859011 6.45149726 112.88689065 C5.33157222 112.88030081 4.21164719 112.87371096 3.05778503 112.86692142 C2.0917215 112.86751851 1.12565796 112.8681156 0.13031977 112.86873078 C-3.79013366 112.31873689 -6.46618505 110.62933476 -9.15880871 107.76842213 C-23.38694205 88.12389712 -29.38516504 65.32387926 -25.76012707 41.29820728 C-23.4932725 28.45322316 -15.64247912 -0.01560529 0 0 Z " fill="#222220" transform="translate(181.53380870819092,158.50501537322998)"/>
<path d="M0 0 C1.50181874 -0.02372224 3.00422383 -0.01967934 4.50601459 0.00575334 C5.33793307 -0.00001588 6.16985155 -0.0057851 7.02697968 -0.01172915 C9.83335715 -0.02503465 12.63831942 -0.00247734 15.44462466 0.0197199 C17.46923249 0.01754082 19.49383895 0.01316534 21.51843786 0.00677407 C27.09635098 -0.00444104 32.67378685 0.0156417 38.25163913 0.04066437 C44.26116841 0.06220013 50.27066947 0.05495383 56.28022647 0.051153 C66.69695331 0.04852766 77.11355152 0.06407857 87.5302341 0.0923422 C98.45683159 0.12191348 109.38336678 0.14116911 120.310004 0.14660627 C121.32855644 0.14712181 121.32855644 0.14712181 122.3676857 0.14764778 C125.81607182 0.14933941 129.26445799 0.15084634 132.71284422 0.15228216 C157.14649039 0.16278805 181.58005513 0.1964855 206.01365542 0.24379522 C229.75258331 0.28970686 253.49148892 0.32513006 277.2304523 0.34633428 C277.96201359 0.34699191 278.69357488 0.34764954 279.4473047 0.3483271 C286.79385202 0.35491962 294.14039951 0.3612987 301.48694715 0.3675214 C316.45310614 0.38020293 331.41926368 0.39430919 346.38542056 0.40927678 C347.07356097 0.40996323 347.76170139 0.41064968 348.47069454 0.41135693 C394.43426805 0.45737092 440.39779411 0.53670205 486.36131167 0.62099248 C486.36131167 5.40237885 485.52904156 6.00527948 482.36131167 9.37099248 C481.24756167 10.56982061 481.24756167 10.56982061 480.11131167 11.79286748 C479.53381167 12.39614873 478.95631167 12.99942998 478.36131167 13.62099248 C476.36131167 10.62099248 476.36131167 10.62099248 474.36131167 6.62099248 C235.77131167 6.12599248 235.77131167 6.12599248 -7.63868833 5.62099248 C-3.63868833 0.62099248 -3.63868833 0.62099248 0 0 Z " fill="#363635" transform="translate(85.63868832588196,8.379007518291473)"/>
<path d="M0 0 C0.33 0.99 0.66 1.98 1 3 C1.9504776 2.99829126 1.9504776 2.99829126 2.92015678 2.996548 C40.44725328 2.92946317 77.97434094 2.87796534 115.5014851 2.84680401 C120.00400123 2.84305174 124.50651725 2.83916879 129.0090332 2.83520508 C129.9054307 2.83441815 130.8018282 2.83363122 131.72538926 2.83282044 C146.25366637 2.81975444 160.78190798 2.79609405 175.31016401 2.76854161 C190.20938978 2.74052059 205.10859692 2.72383075 220.00784796 2.71773452 C229.20690332 2.7136112 238.40585837 2.70057231 247.60488286 2.6762506 C253.90674421 2.66043415 260.20855346 2.65559032 266.51043323 2.65949587 C270.1502777 2.66142382 273.78994648 2.65839842 277.42975998 2.64238358 C281.36993137 2.62517312 285.30987128 2.63100935 289.25007629 2.63923645 C290.98789524 2.62612866 290.98789524 2.62612866 292.76082164 2.61275607 C294.33730937 2.62171579 294.33730937 2.62171579 295.94564533 2.63085651 C296.85583496 2.62971735 297.7660246 2.62857819 298.70379573 2.62740451 C301.46244922 3.07503971 302.34070208 3.7888417 304 6 C304.50830078 8.29321289 304.50830078 8.29321289 304.6953125 10.97265625 C304.77136719 11.95556641 304.84742188 12.93847656 304.92578125 13.95117188 C304.99152344 14.97791016 305.05726563 16.00464844 305.125 17.0625 C305.27286637 19.07426081 305.42129945 21.08598005 305.5703125 23.09765625 C305.63895508 24.07750488 305.70759766 25.05735352 305.77832031 26.06689453 C306.10477884 30.38635787 306.54197168 34.69274922 307 39 C304.44230007 40.27884996 302.6453222 40.12654669 299.78034306 40.12863445 C298.66700787 40.1318589 297.55367268 40.13508335 296.40660006 40.1384055 C295.17325959 40.1368569 293.93991913 40.1353083 292.66920471 40.13371277 C291.36695936 40.13597833 290.064714 40.13824388 288.72300667 40.14057809 C285.09620885 40.14671882 281.46943401 40.14655984 277.84263217 40.14538372 C273.93595767 40.14518028 270.02929067 40.15069295 266.12261963 40.15544128 C258.46435562 40.16376073 250.8060993 40.1664967 243.14783115 40.16705366 C236.92555328 40.16752819 230.70327796 40.16957976 224.4810009 40.17275429 C206.85534134 40.18156422 189.22968787 40.18617311 171.60402609 40.18542381 C170.65309347 40.18538386 169.70216086 40.1853439 168.72241211 40.18530273 C167.77032393 40.18526185 166.81823575 40.18522097 165.83729642 40.18517885 C150.40060788 40.18477224 134.96394371 40.19434485 119.52726222 40.2084411 C103.69231891 40.22278741 87.85738749 40.22971226 72.02243751 40.22884732 C63.12613422 40.22851476 54.22985649 40.23128777 45.33355904 40.24202538 C37.76013278 40.25110744 30.18674367 40.25332459 22.61331434 40.24651595 C18.746669 40.24323915 14.880095 40.24323559 11.01345634 40.2518692 C6.82817588 40.26111848 2.64306235 40.25498856 -1.54222107 40.24723816 C-2.77333081 40.25238172 -4.00444055 40.25752529 -5.27285665 40.26282471 C-6.38879959 40.25822592 -7.50474253 40.25362712 -8.65450191 40.24888897 C-10.10473638 40.24921502 -10.10473638 40.24921502 -11.58426851 40.24954766 C-14 40 -14 40 -17 38 C89.26 38 195.52 38 305 38 C304.67 37.01 304.34 36.02 304 35 C303.6940377 31.940377 303.49176802 28.88004822 303.28125 25.8125 C303.09652802 22.9224826 303.09652802 22.9224826 302 20 C302 15.05 302 10.1 302 5 C202.67 5 103.34 5 1 5 C0.67 3.35 0.34 1.7 0 0 Z " fill="#A1A1A0" transform="translate(193,231)"/>
<path d="M0 0 C1.65 1.65 3.3 3.3 5 5 C4.67 5.99 4.34 6.98 4 8 C-42.35849762 8.05134249 -88.71699759 8.09910598 -135.07551575 8.12702942 C-135.76136764 8.12744359 -136.44721954 8.12785776 -137.15385483 8.12828448 C-152.05838253 8.13726269 -166.96291053 8.14557331 -181.86743898 8.15319599 C-189.17635587 8.15693808 -196.48527268 8.16082773 -203.79418945 8.16479492 C-204.88519135 8.16538334 -204.88519135 8.16538334 -205.99823368 8.16598364 C-229.5836775 8.17877329 -253.1690998 8.2013114 -276.75453057 8.22889166 C-300.98665426 8.25717677 -325.21876602 8.27565339 -349.45090594 8.28174497 C-352.87159614 8.28260947 -356.2922863 8.28358638 -359.71297646 8.28463173 C-360.72286221 8.28493513 -360.72286221 8.28493513 -361.7531497 8.28524467 C-372.60147247 8.28879321 -383.44975845 8.30271651 -394.29806621 8.3204961 C-405.19777952 8.33813939 -416.09745452 8.34466527 -426.99718144 8.34050413 C-432.90554572 8.33857631 -438.81380178 8.34160047 -444.72214699 8.35761642 C-450.12631809 8.37215927 -455.53030764 8.37298901 -460.9344869 8.36269668 C-462.89418969 8.36142364 -464.85390357 8.36527659 -466.81358435 8.37464955 C-469.46898142 8.38661615 -472.12371538 8.38024448 -474.77910137 8.36914349 C-475.54728253 8.37702453 -476.31546369 8.38490557 -477.10692307 8.39302543 C-481.57187823 8.35058677 -484.45449233 7.77232732 -488 5 C-488.33 4.34 -488.66 3.68 -489 3 C-487.68 3.33 -486.36 3.66 -485 4 C-485 4.66 -485 5.32 -485 6 C-243.935 5.505 -243.935 5.505 2 5 C1.34 3.35 0.68 1.7 0 0 Z " fill="#757575" transform="translate(568,413)"/>
<path d="M0 0 C0.66 0 1.32 0 2 0 C1 3 1 3 -2 5 C-4.47317735 5.18812288 -6.8321644 5.25916312 -9.30490685 5.23771572 C-10.43484161 5.23982907 -10.43484161 5.23982907 -11.58760333 5.24198511 C-14.13218035 5.24428593 -16.67649135 5.23221432 -19.22103882 5.22032166 C-21.05560029 5.21904647 -22.89016255 5.2186586 -24.72472441 5.21908575 C-29.78203523 5.21773123 -34.83924838 5.20389897 -39.89653206 5.1881541 C-45.34447064 5.17339024 -50.79241668 5.17018684 -56.2403717 5.16572571 C-65.68578133 5.15652753 -75.13115817 5.14033521 -84.57654953 5.11976433 C-98.23855913 5.09028232 -111.90055847 5.07461702 -125.56259365 5.06295223 C-147.73379588 5.04392434 -169.90498496 5.01819378 -192.07617188 4.98608398 C-192.73987442 4.98512593 -193.40357696 4.98416788 -194.08739171 4.9831808 C-209.5737468 4.96079739 -225.0600985 4.93669105 -240.54644775 4.9105835 C-245.91866044 4.90154815 -251.29087317 4.89253516 -256.66308594 4.88354492 C-257.65765342 4.88187656 -257.65765342 4.88187656 -258.67231317 4.88017449 C-281.42550233 4.84207532 -304.17868813 4.8155124 -326.93190348 4.79907519 C-340.56329317 4.78872611 -354.19459607 4.76827577 -367.82594933 4.73495758 C-377.16282982 4.71286225 -386.49968374 4.70144479 -395.8365898 4.69852226 C-401.22854218 4.69646845 -406.62037122 4.6894052 -412.01228905 4.66930008 C-416.9444781 4.65099539 -421.87647934 4.64639789 -426.80869634 4.65287787 C-428.59671346 4.6527573 -430.38473881 4.64750366 -432.17272334 4.63670801 C-434.59652095 4.62279778 -437.0196069 4.62726861 -439.44341087 4.63644314 C-440.14335198 4.6279904 -440.84329309 4.61953767 -441.56444454 4.61082879 C-445.87577665 4.65225335 -448.51433348 5.46053956 -452 8 C-450.125 4.125 -450.125 4.125 -449 3 C-446.61228406 2.89615714 -444.25322582 2.85793152 -441.86475277 2.8613348 C-441.10551914 2.85849258 -440.34628551 2.85565036 -439.5640448 2.85272202 C-436.98734227 2.84431542 -434.41068435 2.84310218 -431.83396912 2.84178162 C-429.9810696 2.83722031 -428.12817111 2.83222094 -426.27527386 2.82681805 C-421.15822883 2.8131783 -416.04119049 2.80580179 -410.92413199 2.79939139 C-405.41556931 2.79141295 -399.90702065 2.77770645 -394.39846802 2.76467896 C-384.84608332 2.74287978 -375.29369722 2.72474794 -365.74130058 2.70907402 C-351.9299657 2.68640663 -338.11864631 2.65825953 -324.30732454 2.62875474 C-301.90191139 2.58104033 -279.49649163 2.53777808 -257.09106445 2.49731445 C-235.3202261 2.45798631 -213.54939337 2.41656909 -191.77856445 2.37231445 C-191.10786487 2.37095192 -190.4371653 2.36958939 -189.74614149 2.36818558 C-183.01089446 2.35450057 -176.27564753 2.340773 -169.54040065 2.32701423 C-113.02694556 2.21157251 -56.51347847 2.10331942 0 2 C0 1.34 0 0.68 0 0 Z " fill="#979797" transform="translate(548,40)"/>
<path d="M0 0 C9.51985228 0.062083 19.03971912 0.12178875 28.5595873 0.18137598 C48.03113861 0.30330243 67.50267148 0.42795938 86.97419256 0.55461836 C86.97419256 1.21461836 86.97419256 1.87461836 86.97419256 2.55461836 C-42.05580744 2.55461836 -171.08580744 2.55461836 -304.02580744 2.55461836 C-304.02580744 1.89461836 -304.02580744 1.23461836 -304.02580744 0.55461836 C-283.86131794 0.42172281 -263.69681383 0.29128176 -243.53229147 0.16346693 C-234.16138903 0.10401625 -224.79049225 0.04386042 -215.41960627 -0.01813555 C-143.6077467 -0.4923422 -71.81176839 -0.46888859 0 0 Z " fill="#181816" transform="translate(434.0258074402809,85.44538164138794)"/>
<path d="M0 0 C2.39073149 2.93189994 3.84107307 5.72143288 5.1875 9.25 C5.53167969 10.14203125 5.87585938 11.0340625 6.23046875 11.953125 C6.48441406 12.62859375 6.73835938 13.3040625 7 14 C5.38096126 15.61903874 3.55828089 15.22105316 1.31697845 15.31185722 C0.30984755 15.35316486 -0.69728335 15.39447249 -1.73493338 15.43703187 C-2.84644467 15.47576759 -3.95795596 15.51450331 -5.10314941 15.55441284 C-6.26731463 15.59654022 -7.43147985 15.6386676 -8.63092279 15.68207157 C-22.14202821 16.12875069 -35.65258853 16.14298597 -49.16942453 16.13072467 C-52.95182874 16.12841701 -56.73422877 16.13197662 -60.51663208 16.13470459 C-67.89460816 16.13910816 -75.27257397 16.13820929 -82.65055043 16.13529195 C-88.67162125 16.13301227 -94.69268924 16.13273637 -100.71376038 16.13381577 C-101.57836637 16.133969 -102.44297236 16.13412223 -103.33377853 16.13428011 C-105.09177808 16.13459992 -106.84977763 16.13492414 -108.60777718 16.1352527 C-125.03074298 16.13809274 -141.45370316 16.13484587 -157.87666804 16.12945233 C-171.84844559 16.12500479 -185.8202148 16.12574611 -199.79199219 16.13037109 C-216.12817092 16.13577646 -232.46434473 16.13779833 -248.80052423 16.13475883 C-250.55856991 16.1344404 -252.31661558 16.13412602 -254.07466125 16.13381577 C-254.93894303 16.13366149 -255.80322481 16.13350721 -256.69369695 16.13334826 C-262.66776272 16.13249935 -268.64182523 16.13392859 -274.6158905 16.13629532 C-312.4234135 16.15002116 -350.20225869 15.99038414 -388 15 C-388.33 14.34 -388.66 13.68 -389 13 C-259.31 13.33 -129.62 13.66 4 14 C4 13.34 4 12.68 4 12 C2.35 12 0.7 12 -1 12 C-1 11.34 -1 10.68 -1 10 C0.32 10 1.64 10 3 10 C2.505 9.0925 2.01 8.185 1.5 7.25 C0 4 0 4 0 0 Z " fill="#A4A4A2" transform="translate(517,330)"/>
<path d="M0 0 C1.485 0.99 1.485 0.99 3 2 C5.48839907 2.18954663 7.86363905 2.26197755 10.35175896 2.24215984 C11.11011392 2.24405873 11.86846888 2.24595762 12.64980429 2.24791405 C15.21160391 2.25189061 17.77315063 2.24152897 20.33493042 2.23136902 C22.18186689 2.23135929 24.02880354 2.23224568 25.87573922 2.2339552 C29.90202438 2.2357157 33.92823544 2.23105057 37.95450974 2.2215786 C44.50449032 2.20616992 51.05443494 2.20434325 57.60443115 2.20413208 C67.1136769 2.20252954 76.622899 2.19442252 86.1321373 2.1826992 C101.15517113 2.16485462 116.17816293 2.16871632 131.20120239 2.17634583 C136.33749958 2.17870116 141.47379682 2.18094088 146.61009407 2.18316364 C147.89377161 2.18372818 149.17744915 2.18429271 150.50002601 2.18487435 C165.1193205 2.19107057 179.73861453 2.19344489 194.35791016 2.19360352 C195.02609723 2.19361727 195.6942843 2.19363103 196.38271947 2.1936452 C218.0565534 2.19395906 239.73033858 2.17663285 261.40415721 2.15226696 C284.31106823 2.12665385 307.21788901 2.12731111 330.12480462 2.15368825 C343.84841281 2.16851194 357.57166251 2.1613902 371.29523565 2.12638716 C380.69526663 2.10426222 390.0950717 2.10741186 399.49509917 2.13068654 C404.92367868 2.14332616 410.35163387 2.14437841 415.78016281 2.11510277 C420.74599107 2.08855022 425.71070159 2.09395556 430.67649294 2.12521449 C432.47661856 2.1308087 434.27682737 2.12445967 436.07685886 2.10522046 C438.51812996 2.08082974 440.95542997 2.09924166 443.39655876 2.12863445 C444.10131291 2.11127801 444.80606706 2.09392156 445.53217739 2.07603917 C448.49212975 2.15156209 450.47710287 2.4647568 452.57919158 4.61647771 C453.97521508 6.55446035 453.97521508 6.55446035 456 10 C455.67 10.66 455.34 11.32 455 12 C454.01 11.67 453.02 11.34 452 11 C451.34 9.02 450.68 7.04 450 5 C227.745 4.505 227.745 4.505 1 4 C0.67 2.68 0.34 1.36 0 0 Z " fill="#646463" transform="translate(97,383)"/>
<path d="M0 0 C0.99 0 1.98 0 3 0 C3.33 0.99 3.66 1.98 4 3 C162.895 3.495 162.895 3.495 325 4 C325 4.33 325 4.66 325 5 C284.03018114 5.06861366 243.06036975 5.12150208 202.09050496 5.15319599 C197.25752079 5.15694827 192.42453673 5.16083122 187.59155273 5.16479492 C186.62936171 5.16558185 185.66717068 5.16636878 184.67582235 5.16717956 C169.08056968 5.18024607 153.48535006 5.20390675 137.89011701 5.23145839 C121.89703909 5.25947799 105.90397851 5.27616895 89.91087705 5.28226548 C80.03621646 5.28638909 70.16164929 5.29942959 60.28701744 5.3237494 C53.52261162 5.3395641 46.75825434 5.34441008 39.99383136 5.34050413 C36.08665644 5.3385759 32.17964517 5.3416047 28.27249908 5.35761642 C24.04326731 5.37482221 19.81438735 5.36899203 15.58512878 5.36076355 C13.71890854 5.37387134 13.71890854 5.37387134 11.81498688 5.38724393 C10.68736036 5.38127078 9.55973384 5.37529764 8.39793682 5.36914349 C6.93240621 5.37085223 6.93240621 5.37085223 5.43726891 5.37259549 C3 5 3 5 1.16262895 3.60192853 C0 2 0 2 0 0 Z " fill="#2C2C2B" transform="translate(172,264)"/>
<path d="M0 0 C0.33 0 0.66 0 1 0 C0.57333613 5.18977119 -0.00922703 10.29464618 -0.97265625 15.4140625 C-3.83299873 31.26004866 -4.39199551 46.7390324 -4.375 62.8125 C-4.37654083 63.84779846 -4.37808167 64.88309692 -4.37966919 65.94976807 C-4.37784782 76.76980032 -4.1544017 87.35559245 -2.43652344 98.05175781 C-1.88737489 101.76066039 -1.84737322 105.26064384 -2 109 C-2.33 109 -2.66 109 -3 109 C-5.32346188 99.64316675 -6.44913156 91.10273199 -6.3984375 81.45703125 C-6.40130768 80.20911301 -6.40417786 78.96119476 -6.40713501 77.67546082 C-6.4091625 75.04771467 -6.40372555 72.41995298 -6.39111328 69.79223633 C-6.37522061 65.8669863 -6.3909162 61.94279421 -6.41015625 58.01757812 C-6.42155544 45.29917819 -6.02357222 32.72579991 -4.6640625 20.07421875 C-4.54783539 18.97245804 -4.43160828 17.87069733 -4.31185913 16.73554993 C-3.58965362 10.71825559 -2.3966174 5.57156962 0 0 Z " fill="#838381" transform="translate(45,153)"/>
<path d="M0 0 C30.03 0 60.06 0 91 0 C91 6.75 91 6.75 89 10.375 C88.62875 11.06335938 88.2575 11.75171875 87.875 12.4609375 C87.58625 12.96882813 87.2975 13.47671875 87 14 C85.75453595 11.50907189 86.2232422 10.58919267 87 8 C86.34 8 85.68 8 85 8 C85.33 6.35 85.66 4.7 86 3 C87.32 3 88.64 3 90 3 C90 2.34 90 1.68 90 1 C60.3 1 30.6 1 0 1 C0 0.67 0 0.34 0 0 Z " fill="#505050" transform="translate(431,85)"/>
<path d="M0 0 C0.33 0 0.66 0 1 0 C1.19864248 5.36334706 0.69215606 10.03944037 -0.4296875 15.27734375 C-1.52135006 20.48891092 -2.30132756 25.72233586 -3 31 C-3.09313477 31.67256836 -3.18626953 32.34513672 -3.28222656 33.03808594 C-6.04387372 53.86745858 -5.18489835 75.0382165 -5 96 C-5.33 96 -5.66 96 -6 96 C-6.73900796 90.16328657 -7.16730015 84.42107531 -7.203125 78.5390625 C-7.21009399 77.75915955 -7.21706299 76.97925659 -7.22424316 76.17572021 C-7.24158045 73.65875802 -7.24796836 71.14201951 -7.25 68.625 C-7.25100708 67.76062317 -7.25201416 66.89624634 -7.25305176 66.00567627 C-7.23544948 43.57985721 -4.63387706 21.94622994 0 0 Z " fill="#939392" transform="translate(11,147)"/>
<path d="M0 0 C0.99 0 1.98 0 3 0 C3.33 0.99 3.66 1.98 4 3 C53.5 3.495 53.5 3.495 104 4 C104 4.33 104 4.66 104 5 C90.88308162 5.06942445 77.76620675 5.12277285 64.64914227 5.15543652 C58.55875357 5.1711112 52.46849032 5.19238249 46.37817383 5.22631836 C40.50377477 5.25884731 34.62949657 5.27683942 28.75501442 5.28463173 C26.51064971 5.29018686 24.26629182 5.30103426 22.02197838 5.31719017 C18.88519218 5.3388783 15.74890931 5.34197051 12.61206055 5.34057617 C11.67842178 5.351362 10.74478302 5.36214783 9.78285217 5.3732605 C8.92889862 5.36913651 8.07494507 5.36501251 7.19511414 5.36076355 C6.08204911 5.36491162 6.08204911 5.36491162 4.94649792 5.36914349 C2.44541783 4.8948263 1.53837096 3.99156194 0 2 C0 1.34 0 0.68 0 0 Z " fill="#2C2C2B" transform="translate(172,264)"/>
<path d="M0 0 C1.65 1.65 3.3 3.3 5 5 C4.67 5.99 4.34 6.98 4 8 C-23.72 7.67 -51.44 7.34 -80 7 C-80 6.67 -80 6.34 -80 6 C-52.94 5.67 -25.88 5.34 2 5 C1.01 2.525 1.01 2.525 0 0 Z " fill="#2A2A2A" transform="translate(568,413)"/>
<path d="M0 0 C1.04128715 3.15181546 0.9926693 4.77535249 -0.3125 7.8125 C-3.10217091 14.69791501 -4.62358918 21.72259387 -6 29 C-6.66 29 -7.32 29 -8 29 C-8 30.65 -8 32.3 -8 34 C-8.66 34 -9.32 34 -10 34 C-10.75241109 37.65456815 -11.40049704 41.31733897 -12 45 C-12.66 45 -13.32 45 -14 45 C-13.37895301 39.86467593 -12.29911908 35.0213744 -10.8125 30.0625 C-10.5961792 29.33321289 -10.3798584 28.60392578 -10.15698242 27.85253906 C-7.28548845 18.37935924 -3.69564785 9.17781741 0 0 Z " fill="#878785" transform="translate(28,93)"/>
<path d="M0 0 C1.14237655 3.52090684 0.95528861 6.52308176 0.625 10.1875 C0.53476563 11.25355469 0.44453125 12.31960937 0.3515625 13.41796875 C0 16 0 16 -1 17 C-1.08767112 19.07262076 -1.10695873 21.14820294 -1.09765625 23.22265625 C-1.09443359 24.48271484 -1.09121094 25.74277344 -1.08789062 27.04101562 C-1.07953403 28.38151109 -1.07106907 29.72200588 -1.0625 31.0625 C-1.0574866 32.40689942 -1.05292342 33.7513006 -1.04882812 35.09570312 C-1.03699488 38.39717941 -1.02050971 41.69856803 -1 45 C-7.47470187 32.47621753 -4.24252791 15.17171959 -1 2 C-0.67 1.34 -0.34 0.68 0 0 Z " fill="#7C7C79" transform="translate(159,188)"/>
<path d="M0 0 C1.1008923 3.42505491 0.929757 6.20178346 0.56640625 9.76171875 C-0.10401606 17.45274324 -0.11205149 25.09836144 -0.0625 32.8125 C-0.05746684 34.19856606 -0.0529072 35.58463393 -0.04882812 36.97070312 C-0.03717953 40.31384975 -0.02082429 43.65690011 0 47 C-0.33 47 -0.66 47 -1 47 C-2.57637741 40.23069072 -3.35443338 33.82218147 -3.3125 26.875 C-3.31121094 25.97499268 -3.30992188 25.07498535 -3.30859375 24.14770508 C-3.19148126 15.87004813 -1.90944083 8.03556348 0 0 Z " fill="#6D6D6B" transform="translate(116,189)"/>
<path d="M0 0 C-1.66751148 3.94139078 -4.22710649 6.7892812 -7 10 C-8.54571278 7.68143083 -9.79618552 5.49361571 -11 3 C-8.21756596 -1.17365106 -4.53441502 -0.22300402 0 0 Z " fill="#373737" transform="translate(571,12)"/>
<path d="M0 0 C0.66 0 1.32 0 2 0 C2.433125 0.9590625 2.433125 0.9590625 2.875 1.9375 C3.82823451 4.15206079 3.82823451 4.15206079 6 5 C6.33 5.99 6.66 6.98 7 8 C7.99 8 8.98 8 10 8 C10 9.98 10 11.96 10 14 C11.32 13.67 12.64 13.34 14 13 C14.12375 13.9075 14.2475 14.815 14.375 15.75 C14.92109677 18.58970323 15.57263803 20.52590591 17 23 C12.64989148 19.86823426 9.83455877 16.40128029 6.8125 12.0625 C6.37486328 11.45470703 5.93722656 10.84691406 5.48632812 10.22070312 C3.15921375 6.92721454 1.30862529 3.85276831 0 0 Z " fill="#6E6E6B" transform="translate(111,320)"/>
<path d="M0 0 C1.125 3.75 1.125 3.75 0 6 C-0.99 6 -1.98 6 -3 6 C-2.77699219 6.58265625 -2.55398437 7.1653125 -2.32421875 7.765625 C-2 10 -2 10 -3.14453125 11.921875 C-3.69496094 12.52515625 -4.24539062 13.1284375 -4.8125 13.75 C-5.62654297 14.67039062 -5.62654297 14.67039062 -6.45703125 15.609375 C-8 17 -8 17 -10 17 C-10 17.99 -10 18.98 -10 20 C-10.66 20 -11.32 20 -12 20 C-10.41956214 15.47459324 -8.04961363 11.7280056 -5.4375 7.75 C-5.02564453 7.11320312 -4.61378906 6.47640625 -4.18945312 5.8203125 C-1.16071429 1.16071429 -1.16071429 1.16071429 0 0 Z " fill="#797975" transform="translate(117,99)"/>
<path d="M0 0 C0.33 0 0.66 0 1 0 C1.26554687 1.21816406 1.53109375 2.43632812 1.8046875 3.69140625 C2.16134345 5.3151294 2.51812074 6.93882591 2.875 8.5625 C3.04902344 9.36236328 3.22304688 10.16222656 3.40234375 10.98632812 C4.21561118 14.67615259 5.06571944 18.31892132 6.15625 21.9375 C6.97253987 24.90032991 7.12145225 26.19636936 6 29 C3.33409063 24.44573816 2.68436818 21.26053037 3 16 C2.34 16 1.68 16 1 16 C0.67 10.72 0.34 5.44 0 0 Z " fill="#6F6F6E" transform="translate(43,262)"/>
<path d="M0 0 C0.33 0.99 0.66 1.98 1 3 C0.34 3.66 -0.32 4.32 -1 5 C-1.28875 6.11375 -1.5775 7.2275 -1.875 8.375 C-3.04346471 12.14005295 -4.09597284 13.47068603 -7 16 C-7.33 16.66 -7.66 17.32 -8 18 C-8.66 18 -9.32 18 -10 18 C-10.33 19.65 -10.66 21.3 -11 23 C-11.66 23 -12.32 23 -13 23 C-11.58093202 17.96385112 -9.37101454 14.10984924 -6.5 9.8125 C-6.09652344 9.19697266 -5.69304688 8.58144531 -5.27734375 7.94726562 C-3.53203593 5.28898325 -1.76395547 2.64593321 0 0 Z " fill="#818181" transform="translate(55,44)"/>
<path d="M0 0 C0.33 0 0.66 0 1 0 C1.50832642 3.83227646 2.00514174 7.66596304 2.5 11.5 C2.64308594 12.57765625 2.78617188 13.6553125 2.93359375 14.765625 C3.67616809 20.56477697 4.17027502 26.15389099 4 32 C3.67 32 3.34 32 3 32 C0.06534702 21.13479671 -0.34207192 11.17434943 0 0 Z " fill="#71716F" transform="translate(39,230)"/>
<path d="M0 0 C1.12865035 3.32575637 0.8691177 5.12203171 -0.375 8.375 C-1.65514162 11.91146429 -2.51962722 15.25309231 -3 19 C-3.66 19 -4.32 19 -5 19 C-5.12375 19.804375 -5.2475 20.60875 -5.375 21.4375 C-5.684375 22.7059375 -5.684375 22.7059375 -6 24 C-6.66 24.33 -7.32 24.66 -8 25 C-6.07813928 16.32818942 -3.35448294 8.22047203 0 0 Z " fill="#999998" transform="translate(95,136)"/>
<path d="M0 0 C2.33722838 3.50584257 3.41233172 7.07550049 4.625 11.0625 C4.85445312 11.79533203 5.08390625 12.52816406 5.3203125 13.28320312 C7 18.72719029 7 18.72719029 7 21 C6.34 21 5.68 21 5 21 C5 19.35 5 17.7 5 16 C4.34 16 3.68 16 3 16 C3 15.01 3 14.02 3 13 C2.01 13.33 1.02 13.66 0 14 C0 9.38 0 4.76 0 0 Z " fill="#6F6F6E" transform="translate(50,291)"/>
<path d="M0 0 C3.89505947 -0.20373055 7.78874911 -0.32777065 11.6875 -0.4375 C12.79029297 -0.49615234 13.89308594 -0.55480469 15.02929688 -0.61523438 C23.06855724 -0.78524894 23.06855724 -0.78524894 25.88525391 1.58935547 C27.26953125 3.52734375 27.26953125 3.52734375 29 7 C28.67 7.66 28.34 8.32 28 9 C27.01 8.67 26.02 8.34 25 8 C24.34 6.02 23.68 4.04 23 2 C11.615 1.505 11.615 1.505 0 1 C0 0.67 0 0.34 0 0 Z " fill="#6F6F6A" transform="translate(524,386)"/>
<path d="M0 0 C2 1 2 1 2.7109375 2.93359375 C2.93007812 3.75988281 3.14921875 4.58617187 3.375 5.4375 C4.6666184 10.07800528 6.35468003 14.38323746 8.328125 18.7734375 C9.08777414 21.29087941 8.8707557 22.55518591 8 25 C4.26841115 16.81410352 1.75034096 8.82285688 0 0 Z " fill="#6E6E6B" transform="translate(86,264)"/>
<path d="M0 0 C1.03387225 3.1981115 1.11048522 3.75894134 -0.375 7 C-0.91125 7.99 -1.4475 8.98 -2 10 C-2.68636625 12.23525035 -2.68636625 12.23525035 -3 14 C-3.66 14 -4.32 14 -5 14 C-5 14.99 -5 15.98 -5 17 C-5.99 17 -6.98 17 -8 17 C-6.3341708 10.83643195 -3.12194714 5.51740344 0 0 Z " fill="#8C8C86" transform="translate(104,119)"/>
<path d="M0 0 C0.33 1.32 0.66 2.64 1 4 C1.66 4 2.32 4 3 4 C3.33 10.6 3.66 17.2 4 24 C3.67 24 3.34 24 3 24 C2.49061655 21.50159546 1.99236886 19.00176612 1.5 16.5 C1.35691406 15.80390625 1.21382813 15.1078125 1.06640625 14.390625 C0.11722627 9.50912797 -0.13440046 4.97281701 0 0 Z " fill="#858584" transform="translate(6,248)"/>
<path d="M0 0 C0.33 0 0.66 0 1 0 C0.50269348 4.97306516 -0.55302334 8.63799813 -3 13 C-4.24546405 10.50907189 -3.7767578 9.58919267 -3 7 C-3.66 7 -4.32 7 -5 7 C-4.67 5.35 -4.34 3.7 -4 2 C-2.68 2 -1.36 2 0 2 C0 1.34 0 0.68 0 0 Z " fill="#494948" transform="translate(521,86)"/>
<path d="M0 0 C0.66 0 1.32 0 2 0 C2 0.66 2 1.32 2 2 C2.928125 2.2784375 2.928125 2.2784375 3.875 2.5625 C7.03996835 4.703508 7.03403604 7.37763514 8 11 C9.20062311 13.13599229 10.54893577 15.01687888 12 17 C11.67 17.66 11.34 18.32 11 19 C6.72500877 12.91805372 3.17180135 6.72253472 0 0 Z " fill="#6B6B6A" transform="translate(44,366)"/>
<path d="M0 0 C0.33 0.66 0.66 1.32 1 2 C0.10375977 3.78759766 0.10375977 3.78759766 -1.30859375 5.9140625 C-1.80810547 6.67460938 -2.30761719 7.43515625 -2.82226562 8.21875 C-3.35529297 9.0128125 -3.88832031 9.806875 -4.4375 10.625 C-4.96666016 11.42679688 -5.49582031 12.22859375 -6.04101562 13.0546875 C-7.35360307 15.04130634 -8.67346881 17.02267595 -10 19 C-10.33 18.01 -10.66 17.02 -11 16 C-9.8203125 13.9140625 -9.8203125 13.9140625 -8.125 11.625 C-5.69748957 8.33939286 -4.75393651 5.98703359 -4 2 C-1.9375 0.6875 -1.9375 0.6875 0 0 Z " fill="#848481" transform="translate(89,56)"/>
<path d="M0 0 C0.99 0 1.98 0 3 0 C3.33 0.99 3.66 1.98 4 3 C11.92 3.33 19.84 3.66 28 4 C28 4.33 28 4.66 28 5 C23.89596637 5.08694042 19.79216871 5.14037149 15.6875 5.1875 C13.93663086 5.22520508 13.93663086 5.22520508 12.15039062 5.26367188 C11.03212891 5.27333984 9.91386719 5.28300781 8.76171875 5.29296875 C7.73006592 5.3086792 6.69841309 5.32438965 5.63549805 5.34057617 C3 5 3 5 1.13989258 3.60668945 C0 2 0 2 0 0 Z " fill="#424240" transform="translate(172,264)"/>
<path d="M0 0 C1.65 1.65 3.3 3.3 5 5 C4.67 5.99 4.34 6.98 4 8 C-1.15171623 8.09038099 -5.91913204 7.84681133 -11 7 C-11 6.67 -11 6.34 -11 6 C-4.565 5.505 -4.565 5.505 2 5 C1.34 3.35 0.68 1.7 0 0 Z " fill="#6F6F6F" transform="translate(568,413)"/>
<path d="M0 0 C0.66 0 1.32 0 2 0 C2 0.99 2 1.98 2 3 C3.65 3.33 5.3 3.66 7 4 C7.625 6.3125 7.625 6.3125 8 9 C7.01 10.485 7.01 10.485 6 12 C4.99466333 10.37829621 3.99588093 8.75252763 3 7.125 C2.443125 6.22007812 1.88625 5.31515625 1.3125 4.3828125 C0 2 0 2 0 0 Z " fill="#585857" transform="translate(104,308)"/>
<path d="M0 0 C0.66 0 1.32 0 2 0 C2 1.32 2 2.64 2 4 C2.66 4 3.32 4 4 4 C4 5.32 4 6.64 4 8 C4.66 8 5.32 8 6 8 C6.33 10.31 6.66 12.62 7 15 C4.47138427 12.73946101 3.16143472 10.60099936 1.8125 7.5 C1.46832031 6.7265625 1.12414062 5.953125 0.76953125 5.15625 C0 3 0 3 0 0 Z " fill="#6D6D6B" transform="translate(95,289)"/>
<path d="M0 0 C1.13005694 3.5091242 0.98574145 6.53292935 0.6875 10.1875 C0.60886719 11.25355469 0.53023437 12.31960937 0.44921875 13.41796875 C0.30097656 14.27003906 0.15273437 15.12210938 0 16 C-0.66 16.33 -1.32 16.66 -2 17 C-3.80789124 10.91891127 -1.83657235 5.83137661 0 0 Z " fill="#71716F" transform="translate(159,188)"/>
<path d="M0 0 C0.66 0 1.32 0 2 0 C0.33333333 5 -1.33333333 10 -3 15 C-3.33 15 -3.66 15 -4 15 C-4 12.69 -4 10.38 -4 8 C-3.34 8 -2.68 8 -2 8 C-2.66 6.35 -3.32 4.7 -4 3 C-2.68 3 -1.36 3 0 3 C0 2.01 0 1.02 0 0 Z " fill="#5D5D5C" transform="translate(127,149)"/>
<path d="M0 0 C2.29158942 2.89818662 4.07862366 5.83140544 5.75 9.125 C6.19859375 9.99382812 6.6471875 10.86265625 7.109375 11.7578125 C7.40328125 12.49773437 7.6971875 13.23765625 8 14 C7.67 14.66 7.34 15.32 7 16 C2.75107119 12.31014077 1.10390064 9.51950319 0 4 C0 2.68 0 1.36 0 0 Z " fill="#636361" transform="translate(63,327)"/>
<path d="M0 0 C0.66 0.99 1.32 1.98 2 3 C1.25 4.9375 1.25 4.9375 0 7 C-1.33333333 7.33333333 -2.66666667 7.66666667 -4 8 C-5.28436734 9.9837767 -5.28436734 9.9837767 -6 12 C-6.33 11.34 -6.66 10.68 -7 10 C-5.06305458 6.19528578 -3.29078593 2.79716804 0 0 Z " fill="#646463" transform="translate(170,168)"/>
<path d="M0 0 C1.32 0.66 2.64 1.32 4 2 C2.02 4.97 0.04 7.94 -2 11 C-3.31826804 7.04519588 -2.29536133 4.88608399 -1 1 C-0.67 0.67 -0.34 0.34 0 0 Z " fill="#595957" transform="translate(553,29)"/>
<path d="M0 0 C2.0625 0.4375 2.0625 0.4375 4 1 C4 1.66 4 2.32 4 3 C4.66 3 5.32 3 6 3 C4.25 6.875 4.25 6.875 2 8 C1.01 5.69 0.02 3.38 -1 1 C-0.67 0.67 -0.34 0.34 0 0 Z " fill="#3F3F3F" transform="translate(561,14)"/>
<path d="M0 0 C0.66 1.32 1.32 2.64 2 4 C0.35 5.98 -1.3 7.96 -3 10 C-3.66 8.68 -4.32 7.36 -5 6 C-4.01 6 -3.02 6 -2 6 C-1.855625 5.195625 -1.71125 4.39125 -1.5625 3.5625 C-1 1 -1 1 0 0 Z " fill="#4A4A4A" transform="translate(94,46)"/>
<path d="M0 0 C0.33 0.66 0.66 1.32 1 2 C-0.28182342 4.39273706 -1.59280943 6.68740775 -3 9 C-3.33 9.66 -3.66 10.32 -4 11 C-6.0625 11.625 -6.0625 11.625 -8 12 C-6.59023295 8.96147295 -4.91129772 6.4060405 -2.875 3.75 C-2.06675781 2.69039062 -2.06675781 2.69039062 -1.2421875 1.609375 C-0.83226563 1.07828125 -0.42234375 0.5471875 0 0 Z " fill="#AAAAAA" transform="translate(77,14)"/>
<path d="M0 0 C2.55803184 3.83704776 4.34505724 7.75712791 3.625 12.4375 C3.41875 12.953125 3.2125 13.46875 3 14 C-0.00559652 8.99067246 -0.29341888 5.67276511 0 0 Z " fill="#848482" transform="translate(46,277)"/>
<path d="M0 0 C1.32 0 2.64 0 4 0 C2.80100302 3.0831351 1.52299523 6.06279492 0 9 C-1.15941038 5.52176885 -0.70820884 3.54104422 0 0 Z " fill="#646463" transform="translate(72,78)"/>
<path d="M0 0 C0.625 1.8125 0.625 1.8125 1 4 C0.01 5.485 0.01 5.485 -1 7 C-1.66 7 -2.32 7 -3 7 C-3.33 8.65 -3.66 10.3 -4 12 C-4.66 12 -5.32 12 -6 12 C-4.68139111 7.38486888 -2.78644563 3.90102388 0 0 Z " fill="#9C9C9C" transform="translate(48,55)"/>
<path d="M0 0 C1.125 3.75 1.125 3.75 0 6 C-0.99 6 -1.98 6 -3 6 C-3 6.99 -3 7.98 -3 9 C-3.66 9 -4.32 9 -5 9 C-3.7508258 5.54074837 -2.32472205 2.85306797 0 0 Z " fill="#868686" transform="translate(117,99)"/>
<path d="M0 0 C0 3.28176588 -0.47835901 5.10888212 -2 8 C-4.125 8.8125 -4.125 8.8125 -6 9 C-4.47291037 5.56404834 -2.40072955 2.88087546 0 0 Z " fill="#969690" transform="translate(124,90)"/>
<path d="M0 0 C0.66 0 1.32 0 2 0 C2.12375 0.9075 2.2475 1.815 2.375 2.75 C2.92109677 5.58970323 3.57263803 7.52590591 5 10 C0.22632794 6.69515012 0.22632794 6.69515012 -0.875 3.3125 C-0.91625 2.549375 -0.9575 1.78625 -1 1 C-0.67 0.67 -0.34 0.34 0 0 Z " fill="#676766" transform="translate(123,333)"/>
<path d="M0 0 C0.33 1.32 0.66 2.64 1 4 C-0.98 5.32 -2.96 6.64 -5 8 C-3.62845496 5.04590299 -2.01136276 2.55991624 0 0 Z " fill="#7C7C7A" transform="translate(61,36)"/>
<path d="M0 0 C1.4783226 2.95664519 1.06032783 5.74229737 1 9 C-1.15377564 6.37801226 -2.40072174 4.35595828 -3 1 C-2.01 0.67 -1.02 0.34 0 0 Z " fill="#5B5B5A" transform="translate(34,339)"/>
<path d="M0 0 C0.66 0.33 1.32 0.66 2 1 C0.95125002 3.62187494 0.35068687 4.79371361 -2.125 6.25 C-2.74375 6.4975 -3.3625 6.745 -4 7 C-4 6.34 -4 5.68 -4 5 C-3.34 5 -2.68 5 -2 5 C-2 4.01 -2 3.02 -2 2 C-1.34 2 -0.68 2 0 2 C0 1.34 0 0.68 0 0 Z " fill="#282826" transform="translate(109,114)"/>
</svg>
