<?xml version="1.0" encoding="UTF-8"?>
<svg version="1.1" xmlns="http://www.w3.org/2000/svg" width="610" height="409">
<path d="M0 0 C0.70901685 -0.00523668 1.4180337 -0.01047336 2.14853591 -0.01586872 C4.52442993 -0.03087089 6.90010862 -0.03157391 9.27604675 -0.03224182 C10.97954675 -0.03986319 12.6830433 -0.04829066 14.38653564 -0.0574646 C19.01472699 -0.07941931 23.64285226 -0.08820987 28.27108979 -0.09329104 C31.16306165 -0.09693362 34.05501618 -0.10317318 36.94698143 -0.11029243 C47.03747188 -0.13479079 57.1279109 -0.14783956 67.21842957 -0.15138245 C76.62180415 -0.15501751 86.0248523 -0.18490977 95.42812711 -0.22678703 C103.50299632 -0.26148661 111.57775734 -0.27693083 119.6527006 -0.27762848 C124.47474791 -0.27842144 129.29646277 -0.28716873 134.118433 -0.31562614 C138.65512489 -0.34180095 143.19120858 -0.34401539 147.72794151 -0.3279705 C149.39078981 -0.32615551 151.05367302 -0.33285139 152.71644592 -0.34878922 C166.82592368 -0.47575892 166.82592368 -0.47575892 171.31686401 2.37411499 C177.32524777 8.96556289 177.39675686 14.77718208 177.33268738 23.34324646 C177.33633804 24.43690018 177.33998871 25.53055389 177.34375 26.65734863 C177.35183685 30.26284961 177.3382559 33.86789837 177.32365417 37.47337341 C177.32313516 39.99052938 177.32365446 42.50768575 177.32516479 45.02484131 C177.32507514 50.29964699 177.31500476 55.57433683 177.29655457 60.84910583 C177.27544416 66.91854432 177.2718663 72.98779343 177.27811652 79.05726117 C177.2838461 84.92468238 177.27801231 90.79203676 177.26694298 96.65944862 C177.26311222 99.14196826 177.26193389 101.62449353 177.26352882 104.10701561 C177.26390289 107.59081427 177.25118225 111.07433381 177.23503113 114.55809021 C177.23750854 115.56993378 177.23998596 116.58177734 177.24253845 117.62428284 C177.1149998 135.00661333 172.05292641 150.11198283 163.96037292 165.27415466 C163.30037292 165.27415466 162.64037292 165.27415466 161.96037292 165.27415466 C161.83662292 165.87227966 161.71287292 166.47040466 161.58537292 167.08665466 C160.96037292 169.27415466 160.96037292 169.27415466 158.96037292 172.27415466 C158.30037292 172.27415466 157.64037292 172.27415466 156.96037292 172.27415466 C156.89076355 172.8194281 156.82115417 173.36470154 156.74943542 173.92649841 C153.95902554 182.22865851 144.12773844 189.24030132 137.27287292 194.27415466 C136.66814148 194.71831726 136.06341003 195.16247986 135.44035339 195.62010193 C127.30319221 201.38878765 118.31181849 204.9255532 108.96037292 208.27415466 C108.12119324 208.58739685 107.28201355 208.90063904 106.41740417 209.22337341 C84.303854 216.43049231 57.36041842 212.86841139 36.71037292 203.02415466 C26.39994657 197.56708629 15.93437637 190.86629791 7.96037292 182.27415466 C7.96037292 181.61415466 7.96037292 180.95415466 7.96037292 180.27415466 C6.97037292 179.94415466 5.98037292 179.61415466 4.96037292 179.27415466 C-9.72903608 163.08649108 -18.51913161 138.63772446 -18.45954895 117.08323669 C-18.46801849 115.93044724 -18.47648804 114.77765778 -18.48521423 113.5899353 C-18.5084102 109.82049718 -18.50961114 106.0514709 -18.50837708 102.28196716 C-18.5154848 99.64548075 -18.52318469 97.00899586 -18.53144836 94.37251282 C-18.54598608 88.86703682 -18.54666233 83.36167422 -18.54060364 77.85618591 C-18.53394104 71.50289503 -18.55693861 65.15018147 -18.59391737 58.79700768 C-18.62833286 52.6598823 -18.63495092 46.52302982 -18.63082886 40.38581467 C-18.63252184 37.78388109 -18.6421813 35.18193998 -18.65997314 32.58006668 C-18.68208777 28.94914292 -18.67249993 25.31962405 -18.65486145 21.68870544 C-18.67475632 20.08023491 -18.67475632 20.08023491 -18.6950531 18.43927002 C-18.60328832 10.3163557 -18.60328832 10.3163557 -15.62617493 6.56074524 C-13.03962708 4.27415466 -13.03962708 4.27415466 -11.03962708 4.27415466 C-11.03962708 3.61415466 -11.03962708 2.95415466 -11.03962708 2.27415466 C-7.38264919 -0.02986013 -4.26324671 0.01560684 0 0 Z M6.96037292 25.27415466 C6.96037292 44.08415466 6.96037292 62.89415466 6.96037292 82.27415466 C54.81037292 82.27415466 102.66037292 82.27415466 151.96037292 82.27415466 C151.96037292 63.46415466 151.96037292 44.65415466 151.96037292 25.27415466 C104.11037292 25.27415466 56.26037292 25.27415466 6.96037292 25.27415466 Z M6.96037292 105.27415466 C6.31361126 120.74866081 6.31361126 120.74866081 9.96037292 133.27415466 C55.83037292 133.27415466 101.70037292 133.27415466 148.96037292 133.27415466 C152.80146145 123.67143335 151.96037292 115.98047665 151.96037292 105.27415466 C104.11037292 105.27415466 56.26037292 105.27415466 6.96037292 105.27415466 Z M20.96037292 157.27415466 C23.43537292 160.73915466 23.43537292 160.73915466 25.96037292 164.27415466 C26.62037292 164.27415466 27.28037292 164.27415466 27.96037292 164.27415466 C28.30068542 165.14040466 28.30068542 165.14040466 28.64787292 166.02415466 C30.35368913 168.94841102 32.20465397 170.28065585 34.96037292 172.27415466 C35.60103699 172.73950623 36.24170105 173.20485779 36.90177917 173.68431091 C45.82248134 179.92401493 54.51769245 183.42389242 65.14787292 185.58665466 C65.99132263 185.75826111 66.83477234 185.92986755 67.70378113 186.10667419 C77.47884372 187.94711496 85.33881815 187.00192392 94.96037292 184.77415466 C96.02127136 184.5356781 97.0821698 184.29720154 98.17521667 184.05149841 C100.77208649 183.46661783 103.36693027 182.87401591 105.96037292 182.27415466 C105.96037292 181.61415466 105.96037292 180.95415466 105.96037292 180.27415466 C107.23074402 180.15620544 107.23074402 180.15620544 108.52677917 180.03587341 C112.56693588 179.13959291 115.51814676 177.36443677 118.89787292 175.08665466 C119.51323914 174.68027771 120.12860535 174.27390076 120.76261902 173.85520935 C126.9244395 169.72990892 132.67494903 165.44516507 136.96037292 159.27415466 C136.96037292 158.61415466 136.96037292 157.95415466 136.96037292 157.27415466 C98.68037292 157.27415466 60.40037292 157.27415466 20.96037292 157.27415466 Z " fill="#FDFDFD" transform="translate(226.0396270751953,57.72584533691406)"/>
<path d="M0 0 C1.14528419 -0.00717545 1.14528419 -0.00717545 2.31370544 -0.01449585 C3.92831483 -0.01789011 5.54299338 -0.00872048 7.1574707 0.01220703 C9.59032949 0.03872714 12.01846568 0.01258531 14.45117188 -0.01953125 C24.61248581 -0.04322109 34.38353838 0.6378074 42.37133789 7.71240234 C48.20388904 13.78421038 48.28294411 19.37062273 48.22265625 27.51953125 C47.95217409 32.70377257 47.04635116 37.81413948 45.34375 42.7265625 C44.85450767 44.71052725 44.85450767 44.71052725 46.01953125 46.4453125 C46.48617187 47.0125 46.9528125 47.5796875 47.43359375 48.1640625 C52.73193962 54.67599597 51.6657931 63.68372822 51.05859375 71.6640625 C50.05689719 74.83099834 48.91386029 76.8811627 47.05859375 79.6640625 C46.39859375 79.6640625 45.73859375 79.6640625 45.05859375 79.6640625 C45.05859375 80.3240625 45.05859375 80.9840625 45.05859375 81.6640625 C43.64531246 82.48243692 42.22781029 83.29352469 40.80859375 84.1015625 C40.0196875 84.55402344 39.23078125 85.00648438 38.41796875 85.47265625 C34.91558635 87.24124339 31.80576336 87.78677251 27.90429688 87.84106445 C27.09665894 87.85389969 26.289021 87.86673492 25.45690918 87.87995911 C24.59327759 87.88734604 23.729646 87.89473297 22.83984375 87.90234375 C21.94495239 87.9104155 21.05006104 87.91848724 20.12805176 87.92680359 C18.23854493 87.94061222 16.34901351 87.95134873 14.45947266 87.95922852 C11.5688601 87.97650115 8.67937426 88.02042199 5.7890625 88.06445312 C3.95183131 88.07457564 2.11459043 88.08309312 0.27734375 88.08984375 C-0.58628784 88.10735184 -1.44991943 88.12485992 -2.33972168 88.14289856 C-3.14735962 88.13997299 -3.95499756 88.13704742 -4.78710938 88.1340332 C-5.49452271 88.13989944 -6.20193604 88.14576569 -6.93078613 88.15180969 C-9.99162848 87.40929386 -11.09844577 86.2009652 -12.94140625 83.6640625 C-13.34147702 81.0144432 -13.4992937 78.77740308 -13.47485352 76.12915039 C-13.48346909 75.37581924 -13.49208466 74.6224881 -13.5009613 73.84632874 C-13.52363896 71.35944119 -13.51687933 68.87367897 -13.5078125 66.38671875 C-13.51304762 64.65563116 -13.51932369 62.92454642 -13.52659607 61.19346619 C-13.53700378 57.56609675 -13.53243411 53.93911949 -13.51782227 50.31176758 C-13.50064047 45.66648052 -13.52411944 41.02243107 -13.55931187 36.37728214 C-13.58128895 32.80240199 -13.5798436 29.22781777 -13.57154655 25.65289116 C-13.57072707 23.94049154 -13.57759008 22.2280702 -13.59231758 20.51573372 C-13.60976875 18.11917565 -13.59521913 15.72483846 -13.57250977 13.32836914 C-13.58420197 12.62327209 -13.59589417 11.91817505 -13.60794067 11.19171143 C-13.53471788 7.38765168 -13.01069064 5.75222586 -10.63208008 2.72547913 C-7.13258505 0.0443971 -4.24269216 -0.05931029 0 0 Z M9.05859375 18.6640625 C9.05859375 24.2740625 9.05859375 29.8840625 9.05859375 35.6640625 C16.67955656 36.00849257 16.67955656 36.00849257 24.05859375 34.6640625 C24.05859375 34.0040625 24.05859375 33.3440625 24.05859375 32.6640625 C24.71859375 32.6640625 25.37859375 32.6640625 26.05859375 32.6640625 C27.65923974 29.46277052 27.54370735 26.13833196 27.05859375 22.6640625 C24.47982581 19.30045215 20.34666281 18.81019314 16.375 17.8984375 C13.59357754 17.50241177 13.59357754 17.50241177 9.05859375 18.6640625 Z M9.05859375 52.6640625 C9.05859375 58.6040625 9.05859375 64.5440625 9.05859375 70.6640625 C18.19615684 71.44959503 18.19615684 71.44959503 26.93359375 69.2890625 C29.72699885 65.83838561 29.6998327 63.43952111 29.66015625 59.1015625 C28.83659295 55.76452681 27.8989623 54.61737589 25.05859375 52.6640625 C22.13404853 52.37043346 19.70352667 52.28210307 16.80859375 52.4140625 C12.97234375 52.5378125 12.97234375 52.5378125 9.05859375 52.6640625 Z " fill="#FDFDFD" transform="translate(149.94140625,310.3359375)"/>
<path d="M0 0 C0.95970703 -0.01160156 1.91941406 -0.02320313 2.90820312 -0.03515625 C14.5756682 0.01198502 25.84840789 2.90934668 34.4375 11.125 C39.43208324 18.76377437 40.47459976 26.33801159 39.5625 35.375 C38.52851442 39.88874475 37.13288052 43.51942922 34.5625 47.375 C33.9025 47.375 33.2425 47.375 32.5625 47.375 C32.315 47.973125 32.0675 48.57125 31.8125 49.1875 C30.39403093 51.66982087 28.86985262 52.73828035 26.5625 54.375 C26.90506836 54.99431396 27.24763672 55.61362793 27.60058594 56.25170898 C29.17504146 59.10321696 30.74379627 61.95782403 32.3125 64.8125 C32.85132813 65.78638672 33.39015625 66.76027344 33.9453125 67.76367188 C41.29862578 81.17001743 41.29862578 81.17001743 42.5625 85.375 C42.0675 86.86 42.0675 86.86 41.5625 88.375 C38.14628212 88.52039953 34.73086009 88.60909725 31.3125 88.6875 C30.34441406 88.72939453 29.37632812 88.77128906 28.37890625 88.81445312 C21.23522188 88.9376201 21.23522188 88.9376201 18.17578125 86.37890625 C17.64339844 85.38761719 17.11101562 84.39632812 16.5625 83.375 C16.02616943 82.43829468 16.02616943 82.43829468 15.47900391 81.48266602 C14.26958366 79.34511539 13.13020912 77.18036971 12 75 C11.42088867 73.90558594 11.42088867 73.90558594 10.83007812 72.7890625 C9.03645073 69.36680921 7.41871614 66.03065691 6.09765625 62.3984375 C5.59105469 61.40070313 5.08445312 60.40296875 4.5625 59.375 C2.01999257 58.63983362 2.01999257 58.63983362 -0.4375 58.375 C-0.42702637 59.21272949 -0.41655273 60.05045898 -0.40576172 60.91357422 C-0.37169981 64.01838164 -0.34661089 67.12309392 -0.32763672 70.22802734 C-0.31261893 72.2341136 -0.28721019 74.24011324 -0.26171875 76.24609375 C-0.25527344 77.50292969 -0.24882812 78.75976562 -0.2421875 80.0546875 C-0.23171387 81.21726074 -0.22124023 82.37983398 -0.21044922 83.57763672 C-0.4375 86.375 -0.4375 86.375 -2.4375 88.375 C-4.40869141 88.60205078 -4.40869141 88.60205078 -6.7890625 88.5703125 C-8.06523437 88.56064453 -8.06523437 88.56064453 -9.3671875 88.55078125 C-10.70136719 88.52564453 -10.70136719 88.52564453 -12.0625 88.5 C-12.9596875 88.49097656 -13.856875 88.48195313 -14.78125 88.47265625 C-17.00026586 88.4490497 -19.21875077 88.4161231 -21.4375 88.375 C-22.62974635 84.79826094 -22.57731154 81.55182826 -22.56689453 77.83007812 C-22.56864685 77.06392685 -22.57039917 76.29777557 -22.57220459 75.50840759 C-22.57660801 72.97433206 -22.57369041 70.44032625 -22.5703125 67.90625 C-22.57098597 66.14652493 -22.57195636 64.38679995 -22.57321167 62.6270752 C-22.5746866 58.93838618 -22.57254065 55.24972136 -22.56787109 51.56103516 C-22.56217393 46.82964399 -22.56545403 42.09830955 -22.57144356 37.36692047 C-22.57505469 33.73300752 -22.57390803 30.09910805 -22.57131577 26.4651947 C-22.57064803 24.72045383 -22.57146959 22.97571174 -22.57379532 21.23097229 C-22.57633086 18.79392244 -22.57246847 16.35696484 -22.56689453 13.91992188 C-22.56891876 13.19671249 -22.57094299 12.47350311 -22.57302856 11.7283783 C-22.56002616 8.66429158 -22.41469474 6.30658421 -21.4375 3.375 C-14.73456167 0.04308433 -7.32501723 -0.08819419 0 0 Z M-1.4375 21.375 C-1.4375 26.985 -1.4375 32.595 -1.4375 38.375 C1.90375 38.49875 1.90375 38.49875 5.3125 38.625 C7.19195312 38.69460938 7.19195312 38.69460938 9.109375 38.765625 C12.58493162 38.65641637 12.58493162 38.65641637 14.984375 36.640625 C17.5379151 32.97465159 17.3223368 29.67282692 16.5625 25.375 C14.17706854 21.49867387 10.95630103 20.61542376 6.7578125 19.4765625 C3.85701432 19.21045937 3.85701432 19.21045937 -1.4375 21.375 Z " fill="#FDFDFD" transform="translate(326.4375,308.625)"/>
<path d="M0 0 C0.99443115 -0.00315216 1.9888623 -0.00630432 3.01342773 -0.009552 C4.62906616 -0.00651566 4.62906616 -0.00651566 6.27734375 -0.00341797 C7.37957275 -0.00437469 8.48180176 -0.00533142 9.61743164 -0.00631714 C11.95100969 -0.00699853 14.28458964 -0.0051471 16.61816406 -0.00097656 C20.1999129 0.00437223 23.78153633 -0.00092297 27.36328125 -0.00732422 C29.62630236 -0.00666343 31.88932339 -0.00538225 34.15234375 -0.00341797 C35.22943604 -0.0054422 36.30652832 -0.00746643 37.41625977 -0.009552 C38.90790649 -0.00482376 38.90790649 -0.00482376 40.4296875 0 C41.3074585 0.00079559 42.18522949 0.00159119 43.08959961 0.00241089 C45.21484375 0.12939453 45.21484375 0.12939453 47.21484375 1.12939453 C47.21484375 7.06939453 47.21484375 13.00939453 47.21484375 19.12939453 C44.24124926 20.61619178 41.55185196 20.24052058 38.23828125 20.22705078 C37.21041 20.22492836 37.21041 20.22492836 36.16177368 20.22276306 C33.97108614 20.21716128 31.78050045 20.20460859 29.58984375 20.19189453 C28.10547023 20.18687976 26.6210951 20.18231681 25.13671875 20.17822266 C21.4960606 20.1671913 17.85546211 20.14992552 14.21484375 20.12939453 C14.21484375 24.41939453 14.21484375 28.70939453 14.21484375 33.12939453 C16.12910156 33.10619141 18.04335937 33.08298828 20.015625 33.05908203 C22.51952736 33.04032621 25.02343392 33.02212581 27.52734375 33.00439453 C28.78998047 32.98763672 30.05261719 32.97087891 31.35351562 32.95361328 C33.16625977 32.94394531 33.16625977 32.94394531 35.015625 32.93408203 C36.13106689 32.9236084 37.24650879 32.91313477 38.39575195 32.90234375 C41.21484375 33.12939453 41.21484375 33.12939453 44.21484375 35.12939453 C44.43592162 37.91792344 44.4959191 40.47592634 44.40234375 43.25439453 C44.38204102 44.38554687 44.38204102 44.38554687 44.36132812 45.53955078 C44.3259436 47.4031358 44.27213542 49.26635431 44.21484375 51.12939453 C38.23116034 53.79580784 32.2496145 53.35254179 25.83984375 53.25439453 C24.72222656 53.24537109 23.60460937 53.23634766 22.453125 53.22705078 C19.70693863 53.2035791 16.96086312 53.16771108 14.21484375 53.12939453 C14.21484375 57.74939453 14.21484375 62.36939453 14.21484375 67.12939453 C15.26986084 67.12415771 16.32487793 67.1189209 17.41186523 67.11352539 C21.31241005 67.09547553 25.21295115 67.08396258 29.11352539 67.07446289 C30.80428691 67.06942264 32.49504404 67.06259048 34.18579102 67.05395508 C36.61085082 67.04187596 39.03585319 67.0361633 41.4609375 67.03173828 C42.60156898 67.02399635 42.60156898 67.02399635 43.76524353 67.01609802 C45.58216945 67.01590216 47.39897502 67.06742176 49.21484375 67.12939453 C50.73693965 68.65149043 50.34443896 70.01149535 50.34765625 72.12939453 C50.34958984 73.33595703 50.34958984 73.33595703 50.3515625 74.56689453 C50.34769531 75.41251953 50.34382813 76.25814453 50.33984375 77.12939453 C50.34564453 78.39783203 50.34564453 78.39783203 50.3515625 79.69189453 C50.35027344 80.49626953 50.34898437 81.30064453 50.34765625 82.12939453 C50.34652832 82.87189453 50.34540039 83.61439453 50.34423828 84.37939453 C50.21484375 86.12939453 50.21484375 86.12939453 49.21484375 87.12939453 C47.50165429 87.22821046 45.78439572 87.25738422 44.06835938 87.25878906 C42.97052124 87.26194122 41.87268311 87.26509338 40.74157715 87.26834106 C39.54681763 87.26631683 38.35205811 87.2642926 37.12109375 87.26220703 C35.9040979 87.26316376 34.68710205 87.26412048 33.43322754 87.2651062 C30.85408476 87.26578825 28.27494028 87.26393225 25.69580078 87.25976562 C21.73205739 87.25441776 17.76842733 87.25970982 13.8046875 87.26611328 C11.30598933 87.2654525 8.80729123 87.26417135 6.30859375 87.26220703 C4.51645447 87.26524338 4.51645447 87.26524338 2.68811035 87.26834106 C1.59027222 87.2651889 0.49243408 87.26203674 -0.63867188 87.25878906 C-2.09642029 87.25759567 -2.09642029 87.25759567 -3.58361816 87.25637817 C-5.78515625 87.12939453 -5.78515625 87.12939453 -6.78515625 86.12939453 C-8.18621635 78.12421852 -7.93068026 69.88664024 -7.91796875 61.79345703 C-7.91864454 60.42402123 -7.91961684 59.05458554 -7.92086792 57.68515015 C-7.92233296 54.82931362 -7.92022974 51.97350861 -7.91552734 49.11767578 C-7.9098417 45.49155467 -7.91310934 41.8655078 -7.91909981 38.23938942 C-7.92274719 35.41492168 -7.92154766 32.59047096 -7.91897202 29.76600266 C-7.91799783 27.78993429 -7.92098931 25.81386522 -7.92410278 23.83779907 C-7.88099692 7.04317652 -7.88099692 7.04317652 -6.78515625 1.12939453 C-4.33450474 -0.09593122 -2.73942248 0.00248296 0 0 Z " fill="#FCFCFC" transform="translate(230.78515625,310.87060546875)"/>
<path d="M0 0 C0.99120346 -0.00960754 1.98240692 -0.01921509 3.00364685 -0.02911377 C4.07760208 -0.03336365 5.15155731 -0.03761353 6.25805664 -0.04199219 C7.35791397 -0.04769226 8.4577713 -0.05339233 9.59095764 -0.05926514 C11.92032913 -0.06872275 14.24971405 -0.07525213 16.57910156 -0.07910156 C20.15005687 -0.08881779 23.72043938 -0.11983894 27.29125977 -0.15136719 C29.55102196 -0.15789595 31.81078829 -0.16314692 34.07055664 -0.16699219 C35.14248764 -0.17933899 36.21441864 -0.19168579 37.3188324 -0.20440674 C38.31318802 -0.20140564 39.30754364 -0.19840454 40.33203125 -0.1953125 C41.64535683 -0.20078094 41.64535683 -0.20078094 42.98521423 -0.20635986 C45.72957887 0.24277597 46.61296144 0.92594237 48.23071289 3.16113281 C48.59399414 6.41113281 48.59399414 6.41113281 48.54321289 10.16113281 C48.5393457 11.39863281 48.53547852 12.63613281 48.53149414 13.91113281 C48.23071289 17.16113281 48.23071289 17.16113281 46.23071289 20.16113281 C43.15795898 20.50170898 43.15795898 20.50170898 39.25415039 20.45410156 C38.56890289 20.44985672 37.8836554 20.44561188 37.17764282 20.4412384 C34.9866016 20.42443034 32.79647657 20.38677686 30.60571289 20.34863281 C29.12135116 20.33358861 27.63697504 20.31989974 26.15258789 20.30761719 C22.51166456 20.27452072 18.87127811 20.22272488 15.23071289 20.16113281 C15.23071289 24.45113281 15.23071289 28.74113281 15.23071289 33.16113281 C17.0727832 33.13792969 18.91485352 33.11472656 20.81274414 33.09082031 C23.22289635 33.07206426 25.63305292 33.05386389 28.04321289 33.03613281 C29.2581543 33.019375 30.4730957 33.00261719 31.72485352 32.98535156 C32.88823242 32.97890625 34.05161133 32.97246094 35.25024414 32.96582031 C36.86056519 32.95010986 36.86056519 32.95010986 38.50341797 32.93408203 C41.23071289 33.16113281 41.23071289 33.16113281 44.23071289 35.16113281 C44.45179076 37.94966172 44.51178824 40.50766462 44.41821289 43.28613281 C44.39791016 44.41728516 44.39791016 44.41728516 44.37719727 45.57128906 C44.34181274 47.43487409 44.28800456 49.29809259 44.23071289 51.16113281 C38.35976851 53.74109799 32.63461304 53.38665708 26.35571289 53.28613281 C25.28579102 53.27710938 24.21586914 53.26808594 23.11352539 53.25878906 C20.48582433 53.23532745 17.85823917 53.19945978 15.23071289 53.16113281 C15.23071289 57.78113281 15.23071289 62.40113281 15.23071289 67.16113281 C16.76779907 67.15327759 16.76779907 67.15327759 18.3359375 67.14526367 C22.12466565 67.12721312 25.91338998 67.11570062 29.70214844 67.10620117 C31.34440754 67.10116107 32.98666212 67.09432903 34.62890625 67.08569336 C36.98446768 67.07361356 39.33996998 67.06790143 41.69555664 67.06347656 C42.43410385 67.05831528 43.17265106 67.05315399 43.93357849 67.0478363 C45.69969377 67.04764031 47.46568435 67.09918563 49.23071289 67.16113281 C50.75280879 68.68322872 50.3603081 70.04323363 50.36352539 72.16113281 C50.36545898 73.36769531 50.36545898 73.36769531 50.36743164 74.59863281 C50.36356445 75.44425781 50.35969727 76.28988281 50.35571289 77.16113281 C50.36151367 78.42957031 50.36151367 78.42957031 50.36743164 79.72363281 C50.36614258 80.52800781 50.36485352 81.33238281 50.36352539 82.16113281 C50.36239746 82.90363281 50.36126953 83.64613281 50.36010742 84.41113281 C50.23071289 86.16113281 50.23071289 86.16113281 49.23071289 87.16113281 C47.51752343 87.25994874 45.80026486 87.28912251 44.08422852 87.29052734 C42.98639038 87.2936795 41.88855225 87.29683167 40.75744629 87.30007935 C39.56268677 87.29805511 38.36792725 87.29603088 37.13696289 87.29394531 C35.91996704 87.29490204 34.70297119 87.29585876 33.44909668 87.29684448 C30.8699539 87.29752653 28.29080942 87.29567053 25.71166992 87.29150391 C21.74792654 87.28615604 17.78429647 87.29144811 13.82055664 87.29785156 C11.32185847 87.29719079 8.82316037 87.29590963 6.32446289 87.29394531 C4.53232361 87.29698166 4.53232361 87.29698166 2.70397949 87.30007935 C1.60614136 87.29692719 0.50830322 87.29377502 -0.62280273 87.29052734 C-2.08055115 87.28933395 -2.08055115 87.28933395 -3.56774902 87.28811646 C-5.76928711 87.16113281 -5.76928711 87.16113281 -6.76928711 86.16113281 C-6.86439977 83.51375192 -6.89484346 80.89254281 -6.8828125 78.24487305 C-6.88295853 77.41567352 -6.88310455 76.586474 -6.883255 75.73214722 C-6.88255562 72.97798083 -6.87476204 70.2238812 -6.86694336 67.46972656 C-6.86507927 65.56543515 -6.86365533 63.66114326 -6.86265564 61.7568512 C-6.85882974 56.73445318 -6.84899884 51.7120839 -6.83795166 46.68969727 C-6.82773909 41.56885161 -6.82315835 36.44800133 -6.81811523 31.32714844 C-6.80737664 21.27179725 -6.79029935 11.21646741 -6.76928711 1.16113281 C-4.32932353 -0.05884897 -2.72747563 0.02128964 0 0 Z " fill="#FDFDFD" transform="translate(473.769287109375,310.8388671875)"/>
<path d="M0 0 C0.96373535 0.00064453 1.9274707 0.00128906 2.92041016 0.00195312 C10.90401063 0.16797131 17.19584381 1.74025711 24.3125 5.5 C24.3125 6.16 24.3125 6.82 24.3125 7.5 C24.93125 7.726875 25.55 7.95375 26.1875 8.1875 C28.92660209 9.87929835 29.36274472 11.49244161 30.3125 14.5 C29.03187515 16.2074998 27.69482443 17.87373596 26.3125 19.5 C25.6525 19.5 24.9925 19.5 24.3125 19.5 C24.044375 20.098125 23.77625 20.69625 23.5 21.3125 C22.27138747 23.57573361 21.42218654 25.01540577 19.3125 26.5 C16.21924866 26.33279722 14.31121893 25.49927511 11.61328125 23.97265625 C7.78001497 22.26242975 4.99613559 22.06675166 0.8125 22.0625 C-0.4559375 22.04316406 -1.724375 22.02382813 -3.03125 22.00390625 C-7.22498415 22.57292787 -9.32981655 24.00642626 -12.6875 26.5 C-13.3475 26.5 -14.0075 26.5 -14.6875 26.5 C-14.97625 27.221875 -15.265 27.94375 -15.5625 28.6875 C-16.24446187 30.39240467 -16.95975571 32.08514659 -17.734375 33.75 C-20.00633473 40.30516249 -19.95458386 48.81763178 -16.9375 55.125 C-13.31447661 61.02499296 -9.36949552 63.81114399 -2.6875 65.5 C4.77053914 66.22174572 12.03193039 64.68704641 18.3125 60.5 C19.3025 60.995 19.3025 60.995 20.3125 61.5 C20.3125 62.16 20.3125 62.82 20.3125 63.5 C20.869375 63.726875 21.42625 63.95375 22 64.1875 C24.95426591 65.86424552 26.98097851 68.04576685 29.3125 70.5 C29.9725 71.16 30.6325 71.82 31.3125 72.5 C31.3125 74.8125 31.3125 74.8125 30.3125 77.5 C20.78488568 87.02761432 10.40298247 87.89835227 -2.47705078 87.95092773 C-11.02852049 87.81279355 -16.7585425 86.8012024 -23.6875 81.5 C-24.99847656 80.53707031 -24.99847656 80.53707031 -26.3359375 79.5546875 C-33.85879739 73.4324802 -40.5058055 65.39967672 -42.44189453 55.73364258 C-42.72187811 51.77154945 -42.73197818 47.90736293 -42.625 43.9375 C-42.64755859 42.61814453 -42.67011719 41.29878906 -42.69335938 39.93945312 C-42.59404692 30.3912697 -40.20573409 24.22725291 -34.6875 16.5 C-34.29908936 15.90074707 -33.91067871 15.30149414 -33.51049805 14.68408203 C-25.88876474 4.05354161 -12.37756055 -0.07718555 0 0 Z " fill="#FDFDFD" transform="translate(41.6875,310.5)"/>
<path d="M0 0 C0.9173291 -0.00580078 1.8346582 -0.01160156 2.77978516 -0.01757812 C12.23198416 0.15160389 20.44134209 1.98592257 27.4453125 8.58203125 C28.875 10.5 28.875 10.5 29.375 14.4375 C29.21 15.448125 29.045 16.45875 28.875 17.5 C27.39 17.995 27.39 17.995 25.875 18.5 C25.19013275 19.82407669 24.52629797 21.15909241 23.875 22.5 C22.125 24.8125 22.125 24.8125 19.875 26.5 C16.35752837 26.42353323 14.18933922 25.67453396 11.1171875 23.96875 C5.54522528 21.44458398 -0.12834631 21.87327135 -6.125 22.5 C-10.52344861 24.39588302 -13.15684597 26.94585094 -15.37109375 31.25390625 C-17.87743928 38.72099785 -18.24951194 48.16169672 -15.125 55.5 C-11.88810152 60.77800008 -8.16228852 63.81747697 -2.125 65.5 C4.47450541 66.29035993 9.46952838 65.90264594 15.12109375 62.27734375 C16.875 61.5 16.875 61.5 18.83203125 61.66015625 C23.13829414 63.43041728 26.20803346 66.75997162 28.875 70.5 C29.81060418 73.73497038 29.81594945 76.26748658 28.875 79.5 C24.84185824 84.47420817 17.10878993 87.08121498 10.87939453 87.88793945 C7.70206069 88.03491305 4.55520134 88.04625747 1.375 88 C0.31152344 88.01546875 -0.75195312 88.0309375 -1.84765625 88.046875 C-11.09975044 88.00146595 -19.24285226 85.98888216 -26.125 79.5 C-26.929375 78.7575 -27.73375 78.015 -28.5625 77.25 C-39.39037911 65.62983706 -42.11560134 54.26629458 -41.57421875 38.5859375 C-40.90779443 28.50183613 -36.85364029 20.007746 -30.125 12.5 C-29.42117188 11.71109375 -29.42117188 11.71109375 -28.703125 10.90625 C-27.375 9.5 -27.375 9.5 -25.125 7.5 C-24.465 7.5 -23.805 7.5 -23.125 7.5 C-23.125 6.84 -23.125 6.18 -23.125 5.5 C-15.47746417 0.98246828 -8.74053339 0.00588489 0 0 Z " fill="#FDFDFD" transform="translate(581.125,310.5)"/>
<path d="M0 0 C1.19141098 -0.00637985 2.38282196 -0.0127597 3.6103363 -0.01933289 C4.90302933 -0.02044571 6.19572235 -0.02155853 7.52758789 -0.02270508 C8.86275773 -0.02591747 10.19792722 -0.02928153 11.53309631 -0.03279114 C14.33327043 -0.03878283 17.13341368 -0.04063099 19.93359375 -0.04003906 C23.52277359 -0.03993742 27.11175568 -0.05359108 30.70088863 -0.07081127 C33.45895803 -0.08192634 36.21697954 -0.08395843 38.97506905 -0.08342934 C40.94212939 -0.08518459 42.9091748 -0.09602836 44.87620544 -0.10697937 C46.07076859 -0.10390274 47.26533173 -0.10082611 48.49609375 -0.09765625 C50.07589272 -0.09979378 50.07589272 -0.09979378 51.68760681 -0.10197449 C54.31274414 0.14526367 54.31274414 0.14526367 57.31274414 2.14526367 C57.58887982 4.90068208 57.68532039 7.3961747 57.62524414 10.14526367 C57.6284668 10.88260742 57.63168945 11.61995117 57.63500977 12.37963867 C57.57982363 17.87818418 57.57982363 17.87818418 55.31274414 20.14526367 C53.24975586 20.37231445 53.24975586 20.37231445 50.74243164 20.34057617 C49.8465332 20.33413086 48.95063477 20.32768555 48.02758789 20.32104492 C47.09043945 20.30428711 46.15329102 20.2875293 45.18774414 20.27026367 C44.24286133 20.26124023 43.29797852 20.2522168 42.32446289 20.24291992 C39.98697122 20.21930889 37.64998291 20.18637883 35.31274414 20.14526367 C35.31496475 20.96989609 35.31718536 21.7945285 35.31947327 22.64414978 C35.33947466 30.39924624 35.35471749 38.15433028 35.36455631 45.90944576 C35.3697845 49.89683567 35.37688098 53.88420435 35.38818359 57.87158203 C35.39901476 61.71651482 35.40502146 65.56142712 35.40762138 69.40637398 C35.40947522 70.8764535 35.41309505 72.34653185 35.4184742 73.81660271 C35.42568769 75.86880835 35.42673496 77.92092834 35.42626953 79.97314453 C35.42849014 81.14340683 35.43071075 82.31366913 35.43299866 83.51939392 C35.31274414 86.14526367 35.31274414 86.14526367 34.31274414 87.14526367 C32.82402554 87.23195799 31.33129914 87.25229861 29.84008789 87.24291992 C28.9409668 87.23969727 28.0418457 87.23647461 27.11547852 87.2331543 C25.6971875 87.22058594 25.6971875 87.22058594 24.25024414 87.20776367 C23.30084961 87.20325195 22.35145508 87.19874023 21.37329102 87.1940918 C19.01971349 87.18226477 16.66625937 87.16578393 14.31274414 87.14526367 C12.91757284 84.35492106 13.19319252 82.07300395 13.19921875 78.95141602 C13.19929428 77.6502182 13.19936981 76.34902039 13.19944763 75.00839233 C13.20455467 73.58266156 13.20977067 72.15693118 13.21508789 70.73120117 C13.21695267 69.27674406 13.21837629 67.82228633 13.21937561 66.36782837 C13.22319609 62.53733591 13.23302238 58.7068813 13.24407959 54.87640381 C13.25430379 50.96863314 13.2588754 47.06085636 13.26391602 43.15307617 C13.27464506 35.48378808 13.29171586 27.81453117 13.31274414 20.14526367 C12.71212158 20.15050049 12.11149902 20.1557373 11.49267578 20.16113281 C8.78687576 20.18184381 6.08109237 20.19490492 3.37524414 20.20776367 C2.4297168 20.21614258 1.48418945 20.22452148 0.51000977 20.2331543 C-0.83867187 20.23798828 -0.83867187 20.23798828 -2.21459961 20.24291992 C-3.46358032 20.25077515 -3.46358032 20.25077515 -4.73779297 20.25878906 C-6.68725586 20.14526367 -6.68725586 20.14526367 -7.68725586 19.14526367 C-7.7735746 17.80258954 -7.79432059 16.45552045 -7.78491211 15.11010742 C-7.78168945 14.3012207 -7.7784668 13.49233398 -7.77514648 12.65893555 C-7.76676758 11.80879883 -7.75838867 10.95866211 -7.74975586 10.08276367 C-7.74524414 9.22875977 -7.74073242 8.37475586 -7.73608398 7.49487305 C-7.72425959 5.37830704 -7.70632355 3.26177682 -7.68725586 1.14526367 C-5.02249944 -0.18711454 -2.9839695 0.01080791 0 0 Z " fill="#FDFDFD" transform="translate(389.687255859375,310.854736328125)"/>
<path d="M0 0 C0.89460938 -0.00128906 1.78921875 -0.00257813 2.7109375 -0.00390625 C3.65195313 -0.00003906 4.59296875 0.00382812 5.5625 0.0078125 C6.97402344 0.00201172 6.97402344 0.00201172 8.4140625 -0.00390625 C9.75597656 -0.00197266 9.75597656 -0.00197266 11.125 0 C11.95128906 0.00112793 12.77757813 0.00225586 13.62890625 0.00341797 C15.5625 0.1328125 15.5625 0.1328125 16.5625 1.1328125 C16.67354964 3.73882316 16.71989053 6.31858237 16.72363281 8.92553711 C16.72859772 9.74177048 16.73356262 10.55800385 16.73867798 11.39897156 C16.75333627 14.11104155 16.76010728 16.82305308 16.765625 19.53515625 C16.77137296 21.41223656 16.77713073 23.28931684 16.78289795 25.16639709 C16.79341806 29.10662104 16.79925426 33.04682452 16.80273438 36.98706055 C16.80822453 42.04603859 16.83225939 47.1047482 16.86070633 52.16364193 C16.8792913 56.04200542 16.88453607 59.92030369 16.88607025 63.79870796 C16.88910615 65.66430697 16.897166 67.52990457 16.91025543 69.39546013 C16.92723161 72.00074821 16.92545673 74.60537306 16.91894531 77.21069336 C16.9281601 77.9873938 16.93737488 78.76409424 16.9468689 79.56433105 C16.92999268 81.71006775 16.92999268 81.71006775 16.5625 85.1328125 C12.95240719 87.53954104 10.29274719 87.43076357 6.125 87.3828125 C4.14693359 87.39054687 4.14693359 87.39054687 2.12890625 87.3984375 C-1.1878191 87.15140867 -2.63102254 86.68584056 -5.4375 85.1328125 C-5.46062297 74.19784779 -5.47841485 63.26288884 -5.48931217 52.3279047 C-5.4945411 47.25090232 -5.50163892 42.17391661 -5.51293945 37.09692383 C-5.52376799 32.20160698 -5.52977676 27.30630621 -5.53237724 22.41097832 C-5.53423155 20.53898299 -5.53785228 18.66698859 -5.54323006 16.79500008 C-5.55044004 14.18240551 -5.55149096 11.56987823 -5.55102539 8.95727539 C-5.55462067 8.17540863 -5.55821594 7.39354187 -5.56192017 6.58798218 C-5.54914649 0.00757489 -5.54914649 0.00757489 0 0 Z " fill="#FCFDFD" transform="translate(95.4375,310.8671875)"/>
<path d="M0 0 C0.78375 0.495 1.5675 0.99 2.375 1.5 C2.375 2.16 2.375 2.82 2.375 3.5 C3.035 3.5 3.695 3.5 4.375 3.5 C6.78973599 9.00559806 8.04279804 12.49592704 6.375 18.5 C3.5521139 23.56172681 0.89800837 26.65899721 -4.625 28.5 C-11.43487369 28.94654909 -15.61075195 28.10691723 -20.9375 23.5 C-23.86092213 20.0352034 -23.78572857 16.86909715 -23.8125 12.5 C-23.82667969 11.448125 -23.84085937 10.39625 -23.85546875 9.3125 C-23.625 6.5 -23.625 6.5 -21.625 3.5 C-20.965 3.5 -20.305 3.5 -19.625 3.5 C-19.295 2.51 -18.965 1.52 -18.625 0.5 C-13.06672076 -2.90668728 -5.79789042 -2.39912707 0 0 Z " fill="#FCFCFC" transform="translate(335.625,11.5)"/>
<path d="M0 0 C0.598125 0.53625 1.19625 1.0725 1.8125 1.625 C1.8125 2.285 1.8125 2.945 1.8125 3.625 C2.4725 3.625 3.1325 3.625 3.8125 3.625 C6.77066465 9.17155872 6.49357086 15.49207404 5.1875 21.5 C2.69514106 25.35182746 -0.92143273 27.20297758 -5.1875 28.625 C-10.89138605 28.99902531 -14.15893045 28.64214173 -19.1875 25.625 C-19.1875 24.965 -19.1875 24.305 -19.1875 23.625 C-19.8475 23.625 -20.5075 23.625 -21.1875 23.625 C-21.1875 22.965 -21.1875 22.305 -21.1875 21.625 C-21.8475 21.625 -22.5075 21.625 -23.1875 21.625 C-24.63681569 15.82773723 -25.32730588 10.23886175 -22.5625 4.8125 C-17.16929038 -2.42575502 -8.1126746 -3.49958512 0 0 Z " fill="#FCFDFD" transform="translate(293.1875,11.375)"/>
<path d="M0 0 C4.19978995 3.09984496 6.17465072 6.31537287 7.04296875 11.37109375 C7.34473524 16.72948785 6.5958279 20.39279042 3.1015625 24.53125 C-0.51465457 27.97526626 -3.98932598 29.11268193 -8.875 29.375 C-14.51327379 29.16652601 -17.68090573 26.7184709 -21.5078125 22.6953125 C-24.79077954 17.84641139 -24.19566517 12.56896102 -23.375 6.9375 C-21.78708824 3.42326907 -19.44650813 1.61101939 -16.1875 -0.4375 C-10.64201714 -1.66982952 -5.43137034 -1.70987585 0 0 Z " fill="#FCFCFC" transform="translate(378.375,11.0625)"/>
<path d="M0 0 C3.1875 1.375 3.1875 1.375 5 3 C5 3.66 5 4.32 5 5 C5.66 5 6.32 5 7 5 C10.61894625 13.3959553 10.61894625 13.3959553 9 19 C8.6596875 20.2684375 8.6596875 20.2684375 8.3125 21.5625 C6.22199662 25.44486342 2.95744071 28.02127964 -1 30 C-6.77058356 30.60014069 -10.95665982 30.10359396 -16 27 C-16 26.34 -16 25.68 -16 25 C-16.66 25 -17.32 25 -18 25 C-20.57547877 21.13678185 -21.60725447 17.6205357 -22 13 C-20.42567485 7.09628069 -17.77705501 4.45574192 -13 1 C-9.08202269 -0.95898865 -4.28147548 -0.35781784 0 0 Z " fill="#FCFCFC" transform="translate(247,10)"/>
</svg>
